<mxfile host="app.diagrams.net" modified="2022-04-30T16:21:44.364Z" agent="5.0 (Windows NT 10.0; Win64; x64) AppleWebKit/537.36 (KHTML, like Gecko) Chrome/100.0.4896.127 Safari/537.36" etag="gJl4zWtCwclz3azMlFVM" version="17.4.6" type="github" pages="6">
  <diagram id="dgQ15DuMSUXag_L87Bfp" name="recording-engine">
    <mxGraphModel dx="1214" dy="630" grid="1" gridSize="1" guides="1" tooltips="1" connect="1" arrows="1" fold="1" page="1" pageScale="1" pageWidth="850" pageHeight="1100" math="0" shadow="0">
      <root>
        <mxCell id="0" />
        <mxCell id="1" parent="0" />
        <mxCell id="uV9BMIo4u6kRQM5plzWS-6" value="&lt;div style=&quot;font-size: 9px;&quot;&gt;V8-Platform Shims&lt;/div&gt;" style="rounded=0;whiteSpace=wrap;html=1;fillColor=#f5f5f5;fontColor=#333333;strokeColor=#000000;spacingBottom=0;fontSize=9;" parent="1" vertex="1">
          <mxGeometry x="449" y="416" width="130" height="15" as="geometry" />
        </mxCell>
        <mxCell id="uV9BMIo4u6kRQM5plzWS-5" value="&lt;font style=&quot;font-size: 9px;&quot;&gt;Blink-Platform Shims&lt;/font&gt;" style="rounded=0;whiteSpace=wrap;html=1;fillColor=#f5f5f5;fontColor=#333333;strokeColor=#000000;spacingBottom=0;fontSize=9;" parent="1" vertex="1">
          <mxGeometry x="198" y="416" width="251" height="15" as="geometry" />
        </mxCell>
        <mxCell id="uV9BMIo4u6kRQM5plzWS-2" value="Rendering Engine (Blink)" style="swimlane;startSize=18;fontSize=9;fillColor=#f5f5f5;fontColor=#333333;strokeColor=#666666;" parent="1" vertex="1">
          <mxGeometry x="198" y="300" width="251" height="131" as="geometry" />
        </mxCell>
        <mxCell id="HWfUs2-bYiTDdLblUyuc-42" value="" style="group;fontSize=9;" parent="uV9BMIo4u6kRQM5plzWS-2" vertex="1" connectable="0">
          <mxGeometry x="18" y="51" width="137.08" height="135.00000000000003" as="geometry" />
        </mxCell>
        <mxCell id="HWfUs2-bYiTDdLblUyuc-44" value="" style="group;perimeterSpacing=0;strokeWidth=0.75;opacity=90;" parent="HWfUs2-bYiTDdLblUyuc-42" vertex="1" connectable="0">
          <mxGeometry x="17.000000000000004" y="23.002592009331533" width="120.08000000000001" height="111.9974079906685" as="geometry" />
        </mxCell>
        <mxCell id="HWfUs2-bYiTDdLblUyuc-45" value="" style="group;perimeterSpacing=0;strokeWidth=0.75;opacity=90;" parent="HWfUs2-bYiTDdLblUyuc-44" vertex="1" connectable="0">
          <mxGeometry y="12.28703293175935" width="120.08000000000001" height="99.71037505890915" as="geometry" />
        </mxCell>
        <mxCell id="HWfUs2-bYiTDdLblUyuc-54" value="" style="group;rotation=90;" parent="HWfUs2-bYiTDdLblUyuc-45" vertex="1" connectable="0">
          <mxGeometry x="-26.51000000000001" y="-51.28962494109085" width="146.59" height="151" as="geometry" />
        </mxCell>
        <mxCell id="HWfUs2-bYiTDdLblUyuc-20" value="" style="shape=image;verticalLabelPosition=bottom;labelBackgroundColor=default;verticalAlign=top;aspect=fixed;imageAspect=0;image=data:image/svg+xml,PHN2ZyB2ZXJzaW9uPSIxLjEiIGlkPSJDYXBhXzEiIHhtbG5zPSJodHRwOi8vd3d3LnczLm9yZy8yMDAwL3N2ZyIgeG1sbnM6eGxpbms9Imh0dHA6Ly93d3cudzMub3JnLzE5OTkveGxpbmsiIHg9IjBweCIgeT0iMHB4IiB3aWR0aD0iNTIwLjEwMXB4IiBoZWlnaHQ9IjUyMC4xMDFweCIgdmlld0JveD0iMCAwIDUyMC4xMDEgNTIwLjEwMSIgc3R5bGU9ImVuYWJsZS1iYWNrZ3JvdW5kOm5ldyAwIDAgNTIwLjEwMSA1MjAuMTAxOyIgeG1sOnNwYWNlPSJwcmVzZXJ2ZSI+JiN4YTs8Zz4mI3hhOwk8cGF0aCBkPSJNMzI0LjI1OCw0NzAuMjEzbDAuMDcxLDAuMDZjLTE0LjcyNCwxMC40MDktMjMuODU1LDI5LjUwNy0yMy44NDQsNDkuODE1bC01My4yNSwwLjAxMyYjeEE7JiM5OyYjOTtjLTAuMDEyLTI5LjEyOSwxMy4yOTktNTYuNTc4LDM1LjgzMS03NC40NzZjMTMuNzc4LTEwLjgxNywyMi4wMDYtMjguODIxLDIyLjAwNi00OC4zMzljMC0zMy40NzktMjMuMzEyLTU2LjgwMi00NC4yMzYtNTYuODAyJiN4QTsmIzk7JiM5O3YtMC40NjFjLTQ5Ljg3NS00LjcwNS04Ny42MzktNDQuNzgtODcuNjM5LTk1LjA4MWMwLTI4LjM3NSwxMi4yMzUtNTQuNTk1LDMzLjY4NS03Mi42MzJsLTAuMDM1LTAuMDIzJiN4QTsmIzk7JiM5O2M5LjA2MS03LjY4NywxNS40OTItMTguNzAyLDE4LjU0Mi0zMC45NlY3MS44OThsLTU3LjM0LDE2LjQ4MmMtMS45MjEsMC41NDQtNC4xMDgsMC4wOTUtNS4zNTUtMS4xMDMmI3hBOyYjOTsmIzk7Yy0xLjI1My0xLjE5NC0xLjI0MS0yLjg2MywwLjAyMy00LjA0M2w4Ni42MDQtODEuOTM1QzI1MC4xOSwwLjQ3LDI1MS41MzgsMCwyNTIuOTYyLDBjMS40MTgsMCwyLjc3OCwwLjQ3LDMuNjQ3LDEuMzAxJiN4QTsmIzk7JiM5O2w4Ni41OTksODEuOTM1YzAuNjI3LDAuNTkxLDAuOTM5LDEuMzEyLDAuOTM5LDIuMDMzYzAsMC43MS0wLjMwMSwxLjQwNC0wLjkxLDIuMDFjLTEuMjQ3LDEuMTkxLTMuNDM0LDEuNjQxLTUuMzY3LDEuMTAzJiN4QTsmIzk7JiM5O2wtNTcuMzM0LTE2LjQ4MnY0OC42MzRjMS4zNTQsMjguNzM4LTEwLjM1NSw1Ni42NTgtMzEuNzc2LDc1LjYzMmwwLjExMiwwLjA4NWMtMTQuMDI2LDEwLjc2Ni0yMi40MDgsMjguOTc0LTIyLjQwOCw0OC42OTMmI3hBOyYjOTsmIzk7YzAsMzMuNDc5LDIzLjMxOCw1Ni44MDMsNDQuMjQyLDU2LjgwM3YwLjQ3M2M0OS44NjMsNC42OTMsODcuNjM0LDQ0Ljc2OSw4Ny42MzQsOTUuMDY4JiN4QTsmIzk7JiM5O0MzNTguMzE1LDQyNS44MjMsMzQ1LjkzOCw0NTIuMTc0LDMyNC4yNTgsNDcwLjIxM3oiLz4mI3hhOzwvZz4mI3hhOzxnPiYjeGE7PC9nPiYjeGE7PGc+JiN4YTs8L2c+JiN4YTs8Zz4mI3hhOzwvZz4mI3hhOzxnPiYjeGE7PC9nPiYjeGE7PGc+JiN4YTs8L2c+JiN4YTs8Zz4mI3hhOzwvZz4mI3hhOzxnPiYjeGE7PC9nPiYjeGE7PGc+JiN4YTs8L2c+JiN4YTs8Zz4mI3hhOzwvZz4mI3hhOzxnPiYjeGE7PC9nPiYjeGE7PGc+JiN4YTs8L2c+JiN4YTs8Zz4mI3hhOzwvZz4mI3hhOzxnPiYjeGE7PC9nPiYjeGE7PGc+JiN4YTs8L2c+JiN4YTs8Zz4mI3hhOzwvZz4mI3hhOzwvc3ZnPg==;rotation=-180;opacity=60;" parent="HWfUs2-bYiTDdLblUyuc-54" vertex="1">
          <mxGeometry x="67.47000000000004" y="23.999999999999993" width="46.07999999999999" height="46.07999999999999" as="geometry" />
        </mxCell>
        <mxCell id="sE20zOCeqY2HCu54HOSV-30" value="" style="shape=image;verticalLabelPosition=bottom;labelBackgroundColor=default;verticalAlign=top;aspect=fixed;imageAspect=0;image=data:image/svg+xml,PHN2ZyB2ZXJzaW9uPSIxLjEiIGlkPSJDYXBhXzEiIHhtbG5zPSJodHRwOi8vd3d3LnczLm9yZy8yMDAwL3N2ZyIgeG1sbnM6eGxpbms9Imh0dHA6Ly93d3cudzMub3JnLzE5OTkveGxpbmsiIHg9IjBweCIgeT0iMHB4IiB3aWR0aD0iNTIwLjEwMXB4IiBoZWlnaHQ9IjUyMC4xMDFweCIgdmlld0JveD0iMCAwIDUyMC4xMDEgNTIwLjEwMSIgc3R5bGU9ImVuYWJsZS1iYWNrZ3JvdW5kOm5ldyAwIDAgNTIwLjEwMSA1MjAuMTAxOyIgeG1sOnNwYWNlPSJwcmVzZXJ2ZSI+JiN4YTs8Zz4mI3hhOwk8cGF0aCBkPSJNMzI0LjI1OCw0NzAuMjEzbDAuMDcxLDAuMDZjLTE0LjcyNCwxMC40MDktMjMuODU1LDI5LjUwNy0yMy44NDQsNDkuODE1bC01My4yNSwwLjAxMyYjeEE7JiM5OyYjOTtjLTAuMDEyLTI5LjEyOSwxMy4yOTktNTYuNTc4LDM1LjgzMS03NC40NzZjMTMuNzc4LTEwLjgxNywyMi4wMDYtMjguODIxLDIyLjAwNi00OC4zMzljMC0zMy40NzktMjMuMzEyLTU2LjgwMi00NC4yMzYtNTYuODAyJiN4QTsmIzk7JiM5O3YtMC40NjFjLTQ5Ljg3NS00LjcwNS04Ny42MzktNDQuNzgtODcuNjM5LTk1LjA4MWMwLTI4LjM3NSwxMi4yMzUtNTQuNTk1LDMzLjY4NS03Mi42MzJsLTAuMDM1LTAuMDIzJiN4QTsmIzk7JiM5O2M5LjA2MS03LjY4NywxNS40OTItMTguNzAyLDE4LjU0Mi0zMC45NlY3MS44OThsLTU3LjM0LDE2LjQ4MmMtMS45MjEsMC41NDQtNC4xMDgsMC4wOTUtNS4zNTUtMS4xMDMmI3hBOyYjOTsmIzk7Yy0xLjI1My0xLjE5NC0xLjI0MS0yLjg2MywwLjAyMy00LjA0M2w4Ni42MDQtODEuOTM1QzI1MC4xOSwwLjQ3LDI1MS41MzgsMCwyNTIuOTYyLDBjMS40MTgsMCwyLjc3OCwwLjQ3LDMuNjQ3LDEuMzAxJiN4QTsmIzk7JiM5O2w4Ni41OTksODEuOTM1YzAuNjI3LDAuNTkxLDAuOTM5LDEuMzEyLDAuOTM5LDIuMDMzYzAsMC43MS0wLjMwMSwxLjQwNC0wLjkxLDIuMDFjLTEuMjQ3LDEuMTkxLTMuNDM0LDEuNjQxLTUuMzY3LDEuMTAzJiN4QTsmIzk7JiM5O2wtNTcuMzM0LTE2LjQ4MnY0OC42MzRjMS4zNTQsMjguNzM4LTEwLjM1NSw1Ni42NTgtMzEuNzc2LDc1LjYzMmwwLjExMiwwLjA4NWMtMTQuMDI2LDEwLjc2Ni0yMi40MDgsMjguOTc0LTIyLjQwOCw0OC42OTMmI3hBOyYjOTsmIzk7YzAsMzMuNDc5LDIzLjMxOCw1Ni44MDMsNDQuMjQyLDU2LjgwM3YwLjQ3M2M0OS44NjMsNC42OTMsODcuNjM0LDQ0Ljc2OSw4Ny42MzQsOTUuMDY4JiN4QTsmIzk7JiM5O0MzNTguMzE1LDQyNS44MjMsMzQ1LjkzOCw0NTIuMTc0LDMyNC4yNTgsNDcwLjIxM3oiLz4mI3hhOzwvZz4mI3hhOzxnPiYjeGE7PC9nPiYjeGE7PGc+JiN4YTs8L2c+JiN4YTs8Zz4mI3hhOzwvZz4mI3hhOzxnPiYjeGE7PC9nPiYjeGE7PGc+JiN4YTs8L2c+JiN4YTs8Zz4mI3hhOzwvZz4mI3hhOzxnPiYjeGE7PC9nPiYjeGE7PGc+JiN4YTs8L2c+JiN4YTs8Zz4mI3hhOzwvZz4mI3hhOzxnPiYjeGE7PC9nPiYjeGE7PGc+JiN4YTs8L2c+JiN4YTs8Zz4mI3hhOzwvZz4mI3hhOzxnPiYjeGE7PC9nPiYjeGE7PGc+JiN4YTs8L2c+JiN4YTs8Zz4mI3hhOzwvZz4mI3hhOzwvc3ZnPg==;rotation=-180;opacity=60;" vertex="1" parent="HWfUs2-bYiTDdLblUyuc-54">
          <mxGeometry x="103.51" y="23.999999999999936" width="46.07999999999999" height="46.07999999999999" as="geometry" />
        </mxCell>
        <mxCell id="HWfUs2-bYiTDdLblUyuc-17" value="&lt;font style=&quot;font-size: 5px ; line-height: 1.1&quot;&gt;RenderThread&lt;/font&gt;" style="text;html=1;strokeColor=none;fillColor=none;align=center;verticalAlign=middle;whiteSpace=wrap;rounded=0;fontSize=9;fontColor=#000000;" parent="HWfUs2-bYiTDdLblUyuc-54" vertex="1">
          <mxGeometry x="98.51000000000006" y="-1.9600000000000044" width="60.00000000000004" height="29.999999999999993" as="geometry" />
        </mxCell>
        <mxCell id="HWfUs2-bYiTDdLblUyuc-11" value="&lt;font style=&quot;font-size: 5px&quot;&gt;ServiceWorker&lt;/font&gt;" style="text;html=1;strokeColor=none;fillColor=none;align=center;verticalAlign=middle;whiteSpace=wrap;rounded=0;fontSize=9;fontColor=#000000;" parent="HWfUs2-bYiTDdLblUyuc-54" vertex="1">
          <mxGeometry x="60.51000000000003" y="-1.9600000000000044" width="60.00000000000004" height="29.999999999999993" as="geometry" />
        </mxCell>
        <mxCell id="HWfUs2-bYiTDdLblUyuc-32" value="" style="endArrow=none;dashed=1;html=1;rounded=0;fontSize=9;fontColor=#000000;exitX=0;exitY=0;exitDx=0;exitDy=0;" parent="HWfUs2-bYiTDdLblUyuc-54" edge="1">
          <mxGeometry width="50" height="50" relative="1" as="geometry">
            <mxPoint x="155.59000000000006" y="70.07999999999998" as="sourcePoint" />
            <mxPoint x="155.51000000000002" y="-5.000000000000057" as="targetPoint" />
          </mxGeometry>
        </mxCell>
        <mxCell id="Pxb3OZVMAlauWD3y5kHT-3" value="&lt;font style=&quot;font-size: 9px&quot; color=&quot;#263CFF&quot;&gt;1&lt;/font&gt;" style="ellipse;whiteSpace=wrap;html=1;aspect=fixed;strokeColor=#263CFF;spacingTop=-1;" parent="HWfUs2-bYiTDdLblUyuc-54" vertex="1">
          <mxGeometry x="59.51000000000002" y="82.99999999999994" width="11" height="11" as="geometry" />
        </mxCell>
        <mxCell id="nybtGtvCXscvzg8YpqCt-1" value="4" style="ellipse;whiteSpace=wrap;html=1;aspect=fixed;strokeColor=#263CFF;spacingTop=0;fontSize=9;fontColor=#263CFF;" parent="HWfUs2-bYiTDdLblUyuc-54" vertex="1">
          <mxGeometry x="23.51000000000003" y="-5.00000000000006" width="9.999999999999998" height="9.999999999999998" as="geometry" />
        </mxCell>
        <mxCell id="GNxjKAAhQ80qYXL_soEB-1" value="" style="group;strokeWidth=0.85;" vertex="1" connectable="0" parent="HWfUs2-bYiTDdLblUyuc-54">
          <mxGeometry x="20.510000000000005" y="28.159999999999997" width="41.49" height="36.84" as="geometry" />
        </mxCell>
        <mxCell id="GNxjKAAhQ80qYXL_soEB-2" value="" style="rounded=0;whiteSpace=wrap;html=1;fillColor=#FFE6CC;strokeColor=#000000;strokeWidth=0.85;" vertex="1" parent="GNxjKAAhQ80qYXL_soEB-1">
          <mxGeometry y="13.501022727272728" width="32.17591836734693" height="4.50034090909091" as="geometry" />
        </mxCell>
        <mxCell id="GNxjKAAhQ80qYXL_soEB-3" value="&lt;b&gt;&lt;br&gt;&lt;/b&gt;" style="rounded=0;whiteSpace=wrap;html=1;fillColor=#DAE8FC;strokeColor=#36393d;strokeWidth=0.85;" vertex="1" parent="GNxjKAAhQ80qYXL_soEB-1">
          <mxGeometry y="18.00136363636364" width="32.17591836734693" height="4.50034090909091" as="geometry" />
        </mxCell>
        <mxCell id="GNxjKAAhQ80qYXL_soEB-4" value="" style="rounded=0;whiteSpace=wrap;html=1;fillColor=#FFE6CC;strokeColor=#36393d;strokeWidth=0.85;" vertex="1" parent="GNxjKAAhQ80qYXL_soEB-1">
          <mxGeometry y="22.501704545454547" width="32.17591836734693" height="4.50034090909091" as="geometry" />
        </mxCell>
        <mxCell id="GNxjKAAhQ80qYXL_soEB-5" value="&lt;b&gt;&lt;br&gt;&lt;/b&gt;" style="rounded=0;whiteSpace=wrap;html=1;fillColor=#F8CECC;strokeColor=#36393d;strokeWidth=0.85;" vertex="1" parent="GNxjKAAhQ80qYXL_soEB-1">
          <mxGeometry y="27.002045454545456" width="32.17591836734693" height="4.50034090909091" as="geometry" />
        </mxCell>
        <mxCell id="GNxjKAAhQ80qYXL_soEB-6" value="&lt;b&gt;&lt;br&gt;&lt;/b&gt;" style="rounded=0;whiteSpace=wrap;html=1;fillColor=#F8CECC;strokeColor=#36393d;gradientColor=none;strokeWidth=0.85;" vertex="1" parent="GNxjKAAhQ80qYXL_soEB-1">
          <mxGeometry y="31.502386363636365" width="32.17591836734693" height="4.50034090909091" as="geometry" />
        </mxCell>
        <mxCell id="GNxjKAAhQ80qYXL_soEB-7" value="&lt;b&gt;&lt;br&gt;&lt;/b&gt;" style="rounded=0;whiteSpace=wrap;html=1;fillColor=#DAE8FC;strokeColor=#36393d;strokeWidth=0.85;" vertex="1" parent="GNxjKAAhQ80qYXL_soEB-1">
          <mxGeometry y="9.00068181818182" width="32.17591836734693" height="4.50034090909091" as="geometry" />
        </mxCell>
        <mxCell id="GNxjKAAhQ80qYXL_soEB-8" value="" style="rounded=0;whiteSpace=wrap;html=1;fillColor=#FFE6CC;strokeColor=#000000;strokeWidth=0.85;" vertex="1" parent="GNxjKAAhQ80qYXL_soEB-1">
          <mxGeometry y="4.50034090909091" width="32.17591836734693" height="4.50034090909091" as="geometry" />
        </mxCell>
        <mxCell id="GNxjKAAhQ80qYXL_soEB-9" value="" style="rounded=0;whiteSpace=wrap;html=1;fillColor=#FFE6CC;strokeColor=#000000;strokeWidth=0.85;rotation=20;" vertex="1" parent="GNxjKAAhQ80qYXL_soEB-1">
          <mxGeometry x="1.7866102040816325" y="-5.1576" width="31.73561632653061" height="4.044027272727273" as="geometry" />
        </mxCell>
        <mxCell id="HWfUs2-bYiTDdLblUyuc-55" value="&lt;span style=&quot;white-space: pre&quot;&gt;	&lt;/span&gt;&lt;span style=&quot;white-space: pre&quot;&gt;	&lt;/span&gt;&lt;span style=&quot;white-space: pre&quot;&gt;	&lt;/span&gt;&lt;span style=&quot;white-space: pre&quot;&gt;	&lt;/span&gt;&lt;span style=&quot;white-space: pre&quot;&gt;	&lt;/span&gt;&lt;span style=&quot;white-space: pre&quot;&gt;	&lt;/span&gt;&lt;span style=&quot;white-space: pre&quot;&gt;	&lt;/span&gt;&lt;span style=&quot;white-space: pre&quot;&gt;	&lt;/span&gt;&lt;span style=&quot;white-space: pre&quot;&gt;	&lt;/span&gt;&lt;span style=&quot;white-space: pre&quot;&gt;	&lt;/span&gt;&lt;span style=&quot;white-space: pre&quot;&gt;	&lt;/span&gt;&lt;span style=&quot;white-space: pre&quot;&gt;	&lt;/span&gt;" style="rounded=0;whiteSpace=wrap;html=1;fontSize=9;fontColor=#263CFF;strokeColor=#000000;strokeWidth=0.75;fillColor=none;opacity=80;" parent="HWfUs2-bYiTDdLblUyuc-54" vertex="1">
          <mxGeometry x="5.510000000000019" y="13.999999999999943" width="63" height="58" as="geometry" />
        </mxCell>
        <mxCell id="Pxb3OZVMAlauWD3y5kHT-17" value="" style="group;opacity=60;" parent="uV9BMIo4u6kRQM5plzWS-2" vertex="1" connectable="0">
          <mxGeometry x="180.4" y="80" width="70.4" height="66" as="geometry" />
        </mxCell>
        <mxCell id="-rC2IbM0EiVHqhUnaJVL-19" value="" style="group;opacity=60;" parent="Pxb3OZVMAlauWD3y5kHT-17" vertex="1" connectable="0">
          <mxGeometry x="9.8" y="-23.184905299581132" width="44.41000000000001" height="54.00490529958114" as="geometry" />
        </mxCell>
        <mxCell id="-rC2IbM0EiVHqhUnaJVL-12" value="" style="verticalLabelPosition=bottom;verticalAlign=top;html=1;shape=mxgraph.flowchart.on-page_reference;fontSize=8;opacity=60;" parent="-rC2IbM0EiVHqhUnaJVL-19" vertex="1">
          <mxGeometry x="15.199999999999996" y="5" width="7.999999999999998" height="6.940907849207793" as="geometry" />
        </mxCell>
        <mxCell id="-rC2IbM0EiVHqhUnaJVL-13" style="edgeStyle=none;rounded=0;orthogonalLoop=1;jettySize=auto;html=1;exitX=0.855;exitY=0.145;exitDx=0;exitDy=0;exitPerimeter=0;entryX=0.5;entryY=0;entryDx=0;entryDy=0;entryPerimeter=0;fontSize=8;startArrow=none;startFill=0;endArrow=none;endFill=0;opacity=60;" parent="-rC2IbM0EiVHqhUnaJVL-19" source="-rC2IbM0EiVHqhUnaJVL-17" target="-rC2IbM0EiVHqhUnaJVL-17" edge="1">
          <mxGeometry relative="1" as="geometry" />
        </mxCell>
        <mxCell id="-rC2IbM0EiVHqhUnaJVL-20" style="rounded=0;orthogonalLoop=1;jettySize=auto;html=1;exitX=0.145;exitY=0.855;exitDx=0;exitDy=0;exitPerimeter=0;entryX=0.5;entryY=0;entryDx=0;entryDy=0;entryPerimeter=0;fontSize=11;fontColor=#000000;startArrow=none;startFill=0;endArrow=none;endFill=0;opacity=60;" parent="-rC2IbM0EiVHqhUnaJVL-19" source="-rC2IbM0EiVHqhUnaJVL-15" target="-rC2IbM0EiVHqhUnaJVL-17" edge="1">
          <mxGeometry relative="1" as="geometry" />
        </mxCell>
        <mxCell id="-rC2IbM0EiVHqhUnaJVL-15" value="" style="verticalLabelPosition=bottom;verticalAlign=top;html=1;shape=mxgraph.flowchart.on-page_reference;fontSize=8;opacity=60;" parent="-rC2IbM0EiVHqhUnaJVL-19" vertex="1">
          <mxGeometry x="6.399999999999999" y="17.339391731924962" width="7.999999999999998" height="6.940907849207793" as="geometry" />
        </mxCell>
        <mxCell id="-rC2IbM0EiVHqhUnaJVL-10" style="orthogonalLoop=1;jettySize=auto;html=1;exitX=0.195;exitY=0.801;exitDx=0;exitDy=0;exitPerimeter=0;entryX=0.5;entryY=0;entryDx=0;entryDy=0;entryPerimeter=0;fontSize=8;startArrow=none;startFill=0;endArrow=none;endFill=0;rounded=0;opacity=60;" parent="-rC2IbM0EiVHqhUnaJVL-19" source="-rC2IbM0EiVHqhUnaJVL-12" target="-rC2IbM0EiVHqhUnaJVL-15" edge="1">
          <mxGeometry relative="1" as="geometry" />
        </mxCell>
        <mxCell id="-rC2IbM0EiVHqhUnaJVL-16" value="" style="verticalLabelPosition=bottom;verticalAlign=top;html=1;shape=mxgraph.flowchart.on-page_reference;fontSize=8;opacity=60;" parent="-rC2IbM0EiVHqhUnaJVL-19" vertex="1">
          <mxGeometry x="23.2" y="17.339391731924962" width="7.999999999999998" height="6.940907849207793" as="geometry" />
        </mxCell>
        <mxCell id="-rC2IbM0EiVHqhUnaJVL-11" style="orthogonalLoop=1;jettySize=auto;html=1;exitX=0.855;exitY=0.855;exitDx=0;exitDy=0;exitPerimeter=0;entryX=0.5;entryY=0;entryDx=0;entryDy=0;entryPerimeter=0;fontSize=8;startArrow=none;startFill=0;endArrow=none;endFill=0;opacity=60;" parent="-rC2IbM0EiVHqhUnaJVL-19" source="-rC2IbM0EiVHqhUnaJVL-12" target="-rC2IbM0EiVHqhUnaJVL-16" edge="1">
          <mxGeometry relative="1" as="geometry" />
        </mxCell>
        <mxCell id="-rC2IbM0EiVHqhUnaJVL-17" value="" style="verticalLabelPosition=bottom;verticalAlign=top;html=1;shape=mxgraph.flowchart.on-page_reference;fontSize=8;fillColor=#FFB570;opacity=60;" parent="-rC2IbM0EiVHqhUnaJVL-19" vertex="1">
          <mxGeometry y="28.13635949735931" width="7.999999999999998" height="6.940907849207793" as="geometry" />
        </mxCell>
        <mxCell id="-rC2IbM0EiVHqhUnaJVL-18" value="" style="verticalLabelPosition=bottom;verticalAlign=top;html=1;shape=mxgraph.flowchart.on-page_reference;fontSize=8;opacity=60;" parent="-rC2IbM0EiVHqhUnaJVL-19" vertex="1">
          <mxGeometry x="13.599999999999998" y="28.13635949735931" width="7.999999999999998" height="6.940907849207793" as="geometry" />
        </mxCell>
        <mxCell id="-rC2IbM0EiVHqhUnaJVL-14" style="edgeStyle=none;rounded=0;orthogonalLoop=1;jettySize=auto;html=1;exitX=0.855;exitY=0.855;exitDx=0;exitDy=0;exitPerimeter=0;entryX=0.5;entryY=0;entryDx=0;entryDy=0;entryPerimeter=0;fontSize=8;startArrow=none;startFill=0;endArrow=none;endFill=0;opacity=60;" parent="-rC2IbM0EiVHqhUnaJVL-19" source="-rC2IbM0EiVHqhUnaJVL-15" target="-rC2IbM0EiVHqhUnaJVL-18" edge="1">
          <mxGeometry relative="1" as="geometry" />
        </mxCell>
        <mxCell id="-rC2IbM0EiVHqhUnaJVL-21" value="" style="verticalLabelPosition=bottom;verticalAlign=top;html=1;shape=mxgraph.flowchart.on-page_reference;fontSize=8;opacity=60;" parent="Pxb3OZVMAlauWD3y5kHT-17" vertex="1">
          <mxGeometry x="39.4" y="4.180242214532878" width="8" height="6.940907849207793" as="geometry" />
        </mxCell>
        <mxCell id="-rC2IbM0EiVHqhUnaJVL-22" style="edgeStyle=none;rounded=0;orthogonalLoop=1;jettySize=auto;html=1;exitX=0.855;exitY=0.855;exitDx=0;exitDy=0;exitPerimeter=0;entryX=0.5;entryY=0;entryDx=0;entryDy=0;entryPerimeter=0;fontSize=11;fontColor=#000000;startArrow=none;startFill=0;endArrow=none;endFill=0;opacity=60;" parent="Pxb3OZVMAlauWD3y5kHT-17" source="-rC2IbM0EiVHqhUnaJVL-16" target="-rC2IbM0EiVHqhUnaJVL-21" edge="1">
          <mxGeometry relative="1" as="geometry" />
        </mxCell>
        <mxCell id="-rC2IbM0EiVHqhUnaJVL-24" value="" style="verticalLabelPosition=bottom;verticalAlign=top;html=1;shape=mxgraph.flowchart.on-page_reference;fontSize=8;opacity=60;" parent="Pxb3OZVMAlauWD3y5kHT-17" vertex="1">
          <mxGeometry x="32.199999999999996" y="14.074891959570209" width="8" height="6.940907849207793" as="geometry" />
        </mxCell>
        <mxCell id="-rC2IbM0EiVHqhUnaJVL-26" style="edgeStyle=none;rounded=0;orthogonalLoop=1;jettySize=auto;html=1;exitX=0.145;exitY=0.855;exitDx=0;exitDy=0;exitPerimeter=0;entryX=0.5;entryY=0;entryDx=0;entryDy=0;entryPerimeter=0;fontSize=11;fontColor=#000000;startArrow=none;startFill=0;endArrow=none;endFill=0;opacity=60;" parent="Pxb3OZVMAlauWD3y5kHT-17" source="-rC2IbM0EiVHqhUnaJVL-21" target="-rC2IbM0EiVHqhUnaJVL-24" edge="1">
          <mxGeometry relative="1" as="geometry" />
        </mxCell>
        <mxCell id="-rC2IbM0EiVHqhUnaJVL-25" value="" style="verticalLabelPosition=bottom;verticalAlign=top;html=1;shape=mxgraph.flowchart.on-page_reference;fontSize=8;opacity=60;" parent="Pxb3OZVMAlauWD3y5kHT-17" vertex="1">
          <mxGeometry x="45.8" y="14.074891959570195" width="8" height="6.940907849207793" as="geometry" />
        </mxCell>
        <mxCell id="-rC2IbM0EiVHqhUnaJVL-28" value="" style="verticalLabelPosition=bottom;verticalAlign=top;html=1;shape=mxgraph.flowchart.on-page_reference;fontSize=8;opacity=60;" parent="Pxb3OZVMAlauWD3y5kHT-17" vertex="1">
          <mxGeometry x="15.399999999999999" y="14.205997996721905" width="8" height="6.940907849207793" as="geometry" />
        </mxCell>
        <mxCell id="-rC2IbM0EiVHqhUnaJVL-29" value="" style="verticalLabelPosition=bottom;verticalAlign=top;html=1;shape=mxgraph.flowchart.on-page_reference;fontSize=8;opacity=60;" parent="Pxb3OZVMAlauWD3y5kHT-17" vertex="1">
          <mxGeometry x="3.4000000000000004" y="14.977209979967206" width="8" height="6.940907849207793" as="geometry" />
        </mxCell>
        <mxCell id="-rC2IbM0EiVHqhUnaJVL-30" style="edgeStyle=none;rounded=0;orthogonalLoop=1;jettySize=auto;html=1;exitX=0.855;exitY=0.855;exitDx=0;exitDy=0;exitPerimeter=0;entryX=0.5;entryY=0;entryDx=0;entryDy=0;entryPerimeter=0;fontSize=11;fontColor=#000000;startArrow=none;startFill=0;endArrow=none;endFill=0;opacity=60;" parent="Pxb3OZVMAlauWD3y5kHT-17" source="-rC2IbM0EiVHqhUnaJVL-17" target="-rC2IbM0EiVHqhUnaJVL-28" edge="1">
          <mxGeometry relative="1" as="geometry" />
        </mxCell>
        <mxCell id="-rC2IbM0EiVHqhUnaJVL-31" style="edgeStyle=none;rounded=0;orthogonalLoop=1;jettySize=auto;html=1;exitX=0.145;exitY=0.855;exitDx=0;exitDy=0;exitPerimeter=0;entryX=0.5;entryY=0;entryDx=0;entryDy=0;entryPerimeter=0;fontSize=11;fontColor=#000000;startArrow=none;startFill=0;endArrow=none;endFill=0;opacity=60;" parent="Pxb3OZVMAlauWD3y5kHT-17" source="-rC2IbM0EiVHqhUnaJVL-17" target="-rC2IbM0EiVHqhUnaJVL-29" edge="1">
          <mxGeometry relative="1" as="geometry" />
        </mxCell>
        <mxCell id="-rC2IbM0EiVHqhUnaJVL-27" style="edgeStyle=none;rounded=0;orthogonalLoop=1;jettySize=auto;html=1;exitX=0.855;exitY=0.855;exitDx=0;exitDy=0;exitPerimeter=0;entryX=0.5;entryY=0;entryDx=0;entryDy=0;entryPerimeter=0;fontSize=11;fontColor=#000000;startArrow=none;startFill=0;endArrow=none;endFill=0;opacity=60;" parent="Pxb3OZVMAlauWD3y5kHT-17" source="-rC2IbM0EiVHqhUnaJVL-21" target="-rC2IbM0EiVHqhUnaJVL-25" edge="1">
          <mxGeometry relative="1" as="geometry" />
        </mxCell>
        <mxCell id="Pxb3OZVMAlauWD3y5kHT-15" value="&lt;font style=&quot;font-size: 9px&quot;&gt;DOM Recorder&lt;/font&gt;" style="text;html=1;strokeColor=none;fillColor=none;align=center;verticalAlign=middle;whiteSpace=wrap;rounded=0;fontSize=9;fontColor=#000000;" parent="uV9BMIo4u6kRQM5plzWS-2" vertex="1">
          <mxGeometry x="180.40000000000003" y="28" width="65" height="12" as="geometry" />
        </mxCell>
        <mxCell id="nybtGtvCXscvzg8YpqCt-3" value="5" style="ellipse;whiteSpace=wrap;html=1;aspect=fixed;strokeColor=#263CFF;spacingTop=0;fontSize=9;fontColor=#263CFF;" parent="uV9BMIo4u6kRQM5plzWS-2" vertex="1">
          <mxGeometry x="169.00000000000006" y="30.06507958477505" width="9.93425605536332" height="9.93425605536332" as="geometry" />
        </mxCell>
        <mxCell id="-rC2IbM0EiVHqhUnaJVL-32" value="" style="rounded=0;whiteSpace=wrap;html=1;fontSize=11;fontColor=#000000;strokeColor=#000000;strokeWidth=0.75;fillColor=none;rotation=-90;opacity=80;" parent="uV9BMIo4u6kRQM5plzWS-2" vertex="1">
          <mxGeometry x="179.22" y="49.26" width="59.07" height="56.52" as="geometry" />
        </mxCell>
        <mxCell id="HWfUs2-bYiTDdLblUyuc-56" value="&lt;div&gt;&lt;font style=&quot;font-size: 9px&quot;&gt;JS-Sequence&amp;nbsp;&lt;/font&gt;&lt;span&gt;Recorder&lt;/span&gt;&lt;/div&gt;" style="text;html=1;strokeColor=none;fillColor=none;align=center;verticalAlign=middle;whiteSpace=wrap;rounded=0;fontSize=9;fontColor=#000000;" parent="uV9BMIo4u6kRQM5plzWS-2" vertex="1">
          <mxGeometry x="42.00000000000003" y="20.03" width="106.00000000000007" height="29.999999999999993" as="geometry" />
        </mxCell>
        <mxCell id="Pxb3OZVMAlauWD3y5kHT-11" value="&lt;font style=&quot;font-size: 9px;&quot; color=&quot;#000000&quot;&gt;Bindings Layer&lt;/font&gt;" style="rounded=0;whiteSpace=wrap;html=1;fontColor=#263CFF;strokeColor=#000000;fillColor=#FFFFFF;rotation=-90;fontSize=9;opacity=70;" parent="1" vertex="1">
          <mxGeometry x="432.35" y="360.61" width="97.77" height="12.33" as="geometry" />
        </mxCell>
        <mxCell id="uV9BMIo4u6kRQM5plzWS-4" value="&lt;div style=&quot;font-size: 9px&quot;&gt;&lt;font style=&quot;font-size: 9px&quot;&gt;Platform Layer&lt;/font&gt;&lt;/div&gt;" style="rounded=0;whiteSpace=wrap;html=1;spacingTop=0;" parent="1" vertex="1">
          <mxGeometry x="198" y="431" width="381" height="10" as="geometry" />
        </mxCell>
        <mxCell id="HWfUs2-bYiTDdLblUyuc-33" value="JavaScript (V8)" style="swimlane;fontSize=9;fontColor=#333333;strokeColor=#666666;strokeWidth=1;fillColor=#f5f5f5;startSize=18;" parent="1" vertex="1">
          <mxGeometry x="487" y="300" width="92" height="116" as="geometry" />
        </mxCell>
        <mxCell id="sE20zOCeqY2HCu54HOSV-2" value="" style="shape=image;verticalLabelPosition=bottom;labelBackgroundColor=default;verticalAlign=top;aspect=fixed;imageAspect=0;image=data:image/svg+xml,PHN2ZyB4bWxucz0iaHR0cDovL3d3dy53My5vcmcvMjAwMC9zdmciIHhtbG5zOnhsaW5rPSJodHRwOi8vd3d3LnczLm9yZy8xOTk5L3hsaW5rIiB2aWV3Qm94PSIyLjUgLjEgMTg3IDE4NyI+PHBhdGggZmlsbD0ibm9uZSIgZD0iTTAgMGgxOTJ2MTkySDB6Ii8+PGRlZnM+PHBhdGggaWQ9ImEiIGQ9Ik0xODQgMzJsLTE2IDI4LTQuNTUgOGgtMTAuOGwtMTMuNzggMjYuMDVjLjc0IDMuMiAxLjEzIDYuNTMgMS4xMyA5Ljk1IDAgMTguNjQtMTEuNiAzNC41Ni0yNy45NSA0MC45OC0uNS4yLTEgLjM4LTEuNS41NUw5NiAxNzJsLTE0LjU1LTI2LjQ3Yy0uNS0uMTctMS0uMzUtMS40OC0uNTRDNjMuNiAxMzguNSA1MiAxMjIuNiA1MiAxMDRjMC0zLjQzLjQtNi43NyAxLjEzLTkuOTdMMzkuNDMgNjhoLTEwLjhMMjQgNjAgOCAzMmg0Nmw3LjUgMTQuODcuMzguMjVjMC0uMDguMTQtLjE3LjE1LS4yNUM2My42IDI5LjU3IDc4LjIgMTYgOTUuOTMgMTZzMzIuMzMgMTMuNTcgMzMuOSAzMC45YzAgLjA3LS4yMi4xNi0uMjIuMjRsLS4xLS4yNEwxMzggMzJoNDZ6Ii8+PC9kZWZzPjxjbGlwUGF0aCBpZD0iYiI+PHVzZSB4bGluazpocmVmPSIjYSIgb3ZlcmZsb3c9InZpc2libGUiLz48L2NsaXBQYXRoPjxnIGNsaXAtcGF0aD0idXJsKCNiKSI+PHBhdGggZmlsbD0iIzllOWU5ZSIgZD0iTTE1NS40NyA1OWwtNC4yOCA5aDEyLjJsLjYtMS4wMiA0LjUtNy45OGgtMTMuMXpNMzYuMyA1OUgyMy40NWw1LjE4IDloMTIuMDJsLTQuMzMtOXoiLz48cGF0aCBmaWxsPSIjNDI0MjQyIiBkPSJNMTg0IDMybC0xNiAyOGgtMTEuMmwtMTcuOTMgMzQuMDVMOTYgMTcyIDUzLjEzIDk0LjAzIDM1LjIgNjBIMjRMOCAzMmg0Nmw3LjUgMTQuODcgMjQuNCA0NC41IDkuOTcgMTguMjggOS42NC0xOC4yOCAyNC00NC40N0wxMzggMzIiLz48ZyBmaWxsLW9wYWNpdHk9Ii4yIj48cGF0aCBmaWxsPSIjZmZmIiBkPSJNNTQuNTYgMzNoLTQ2TDggMzJoNDZsLjU2IDF6TTEzOCAzMmwtLjU1IDFoNDUuOThsLjU3LTFoLTQ2eiIvPjxwYXRoIGZpbGw9IiMyNjMyMzgiIGQ9Ik0xNjQuMDQgNjYuOThsLS41OCAxLjAySDE1Mi42bC0xMy43MyAyNi4wNUw5NiAxNzIgNTMuMTMgOTQuMDMgMzkuNDMgNjhIMjguNTZMMjggNjdoMTEuNDNsLjUzIDEgMTMuMTcgMjUuMDNMOTYgMTcxbDQyLjg3LTc3Ljk1TDE1Mi4wNyA2OGwuNTQtMS4wMiIvPjwvZz48L2c+PGcgY2xpcC1wYXRoPSJ1cmwoI2IpIj48cGF0aCBmaWxsPSIjZmZmIiBkPSJNMTEzIDEwNGMwIDkuNC03LjYgMTctMTcgMTctOS4zNyAwLTE3LTcuNi0xNy0xN3M3LjYzLTE3IDE3LTE3YzkuNCAwIDE3IDcuNiAxNyAxN3ptLTItNTJjMCA4LjI4LTYuNzIgMTUtMTUgMTUtOC4yNyAwLTE1LTYuNzItMTUtMTUgMC04LjI4IDYuNzMtMTUgMTUtMTUgOC4yOCAwIDE1IDYuNzIgMTUgMTV6Ii8+PHBhdGggZmlsbD0iIzQyODVmNCIgZD0iTTEzOC44NyA5NC4wNWMtMi4yNS05LjcyLTcuNy0xOC4yLTE1LjItMjQuMjdDMTI3LjY0IDY0LjIgMTMwIDU3LjM4IDEzMCA1MGMwLTEuMDUtLjA1LTIuMDgtLjE1LTMuMUMxMjguMyAyOS41NiAxMTMuNzMgMTYgOTYgMTZTNjMuNzIgMjkuNTYgNjIuMTUgNDYuODdDNjIuMDUgNDcuOSA2MiA0OC45NSA2MiA1MGMwIDcuMzggMi4zNSAxNC4yIDYuMzQgMTkuNzgtNy41IDYuMDctMTIuOTYgMTQuNTQtMTUuMiAyNC4yNS0uNzUgMy4yLTEuMTQgNi41NC0xLjE0IDkuOTcgMCAxOC42NCAxMS42IDM0LjU4IDI3Ljk3IDQxIDQuOTYgMS45MyAxMC4zNyAzIDE2LjAzIDNzMTEuMDgtMS4wNyAxNi4wNS0zLjAyQzEyOC40IDEzOC41NiAxNDAgMTIyLjY0IDE0MCAxMDRjMC0zLjQyLS40LTYuNzUtMS4xMy05Ljk1ek05NiAzOGM3LjczIDAgMTQgNi4yNyAxNCAxNHMtNi4yNyAxNC0xNCAxNGMtNy43MiAwLTE0LTYuMjctMTQtMTRzNi4yOC0xNCAxNC0xNHptMCA4MmMtOC44MiAwLTE2LTcuMTYtMTYtMTYgMC01LjEzIDIuNDItOS43IDYuMTgtMTIuNjNDODguODggODkuMjcgOTIuMyA4OCA5NiA4OHM3LjEyIDEuMjYgOS44MyAzLjM3QzEwOS42IDk0LjMgMTEyIDk4Ljg3IDExMiAxMDRjMCA4Ljg0LTcuMTYgMTYtMTYgMTZ6Ii8+PGcgZmlsbC1vcGFjaXR5PSIuMiI+PHBhdGggZmlsbD0iI2ZmZiIgZD0iTTEzMCA1MHYuNUMxMjkuNzIgMzEuOTUgMTE0LjYgMTcgOTYgMTdTNjIuMjcgMzEuOTUgNjIgNTAuNVY1MGMwLTE4Ljc4IDE1LjIyLTM0IDM0LTM0czM0IDE1LjIyIDM0IDM0ek02Ny45IDcwLjE1QzU4LjIgNzguMiA1MiA5MC4zOCA1MiAxMDR2LjVjLjE1LTEzLjYyIDYuNS0yNS43NSAxNi4zNC0zMy43MmwuNDYtLjM3LS40Ni0uNi0uNDQuNHptNTYuMiAwbC0uNDQtLjM3LS40Ni42My40Ni40YzkuODUgOCAxNi4yIDIwLjEgMTYuMzQgMzMuN3YtLjVjMC0xMy42LTYuMi0yNS44LTE1LjktMzMuOHoiLz48cGF0aCBmaWxsPSIjMjYzMjM4IiBkPSJNMTQwIDEwMy41di41YzAgMjQuMy0xOS43IDQ0LTQ0IDQ0cy00NC0xOS43LTQ0LTQ0di0uNWMuMjcgMjQuMDcgMTkuODcgNDMuNSA0NCA0My41czQzLjczLTE5LjQzIDQ0LTQzLjV6bS03OC01NHYuNWMwIDcuNjYgMi41MyAxNC43MyA2LjggMjAuNC4xNi0uMS4zMi0uMjQuNS0uMzYtNC40OC01LjY3LTcuMTgtMTIuOC03LjMtMjAuNTR6bTY4IDBjLS4xMiA3Ljc1LTIuODIgMTQuODctNy4zIDIwLjU0LjE4LjEyLjM0LjI1LjUuMzcgNC4yNy01LjYgNi44LTEyLjcgNi44LTIwLjR2LS41eiIvPjwvZz48L2c+PHJhZGlhbEdyYWRpZW50IGlkPSJjIiBjeD0iMTAuMjUiIGN5PSIzMy43NSIgcj0iMTg1LjQ0IiBncmFkaWVudFVuaXRzPSJ1c2VyU3BhY2VPblVzZSI+PHN0b3Agb2Zmc2V0PSIwIiBzdG9wLWNvbG9yPSIjRkZGIiBzdG9wLW9wYWNpdHk9Ii4xIi8+PHN0b3Agb2Zmc2V0PSIxIiBzdG9wLWNvbG9yPSIjRkZGIiBzdG9wLW9wYWNpdHk9IjAiLz48L3JhZGlhbEdyYWRpZW50PjxwYXRoIGZpbGw9InVybCgjYykiIGQ9Ik0xODQgMzJsLTE2IDI4LTQuNTUgOEgxNTIuNmwtMTMuNzMgMjYuMDVjLjc0IDMuMiAxLjEzIDYuNTMgMS4xMyA5Ljk1IDAgMTguNjQtMTEuNiAzNC41Ni0yNy45NSA0MC45OC0uNS4yLTEgLjM4LTEuNS41NUw5NiAxNzJsLTE0LjU1LTI2LjQ3Yy0uNS0uMTctMS0uMzUtMS40OC0uNTRDNjMuNiAxMzguNSA1MiAxMjIuNiA1MiAxMDRjMC0zLjQzLjQtNi43NyAxLjEzLTkuOTdMMzkuNDMgNjhoLTEwLjhMMjQgNjAgOCAzMmg0Nmw3LjUgMTQuODcuMzguMjVjMC0uMDguMTQtLjE3LjE1LS4yNUM2My42IDI5LjU3IDc4LjIgMTYgOTUuOTMgMTZzMzIuMzMgMTMuNTcgMzMuOSAzMC45YzAgLjA3LS4yMi4xNi0uMjIuMjRsLS4xLS4yNEwxMzggMzJoNDZ6Ii8+PC9zdmc+;" vertex="1" parent="HWfUs2-bYiTDdLblUyuc-33">
          <mxGeometry x="9" y="31.08" width="74" height="74" as="geometry" />
        </mxCell>
        <mxCell id="HWfUs2-bYiTDdLblUyuc-35" value="2" style="ellipse;whiteSpace=wrap;html=1;aspect=fixed;strokeColor=#263CFF;spacingTop=0;fontColor=#263CFF;fontSize=9;" parent="1" vertex="1">
          <mxGeometry x="463.57" y="304" width="10" height="10" as="geometry" />
        </mxCell>
        <mxCell id="HWfUs2-bYiTDdLblUyuc-34" value="&lt;font style=&quot;font-size: 9px&quot; color=&quot;#263CFF&quot;&gt;3&lt;/font&gt;" style="ellipse;whiteSpace=wrap;html=1;aspect=fixed;strokeColor=#263CFF;spacingTop=0;" parent="1" vertex="1">
          <mxGeometry x="461" y="418.75" width="11.25" height="11.25" as="geometry" />
        </mxCell>
        <mxCell id="sE20zOCeqY2HCu54HOSV-37" value="" style="curved=1;endArrow=openThin;html=1;rounded=0;fontSize=5;fontColor=#666666;opacity=90;strokeWidth=0.75;endFill=0;fillColor=#ffe6cc;strokeColor=#d79b00;" edge="1" parent="1">
          <mxGeometry width="50" height="50" relative="1" as="geometry">
            <mxPoint x="385" y="384.04" as="sourcePoint" />
            <mxPoint x="402" y="365.04" as="targetPoint" />
            <Array as="points">
              <mxPoint x="379" y="376.04" />
              <mxPoint x="383" y="366.04" />
              <mxPoint x="398" y="365.04" />
            </Array>
          </mxGeometry>
        </mxCell>
        <mxCell id="uV9BMIo4u6kRQM5plzWS-7" value="&lt;div style=&quot;font-size: 9px;&quot;&gt;&lt;font style=&quot;font-size: 9px;&quot;&gt;Web APIs&lt;/font&gt;&lt;/div&gt;" style="rounded=0;whiteSpace=wrap;html=1;strokeColor=#000000;rotation=-90;spacingBottom=0;fontSize=9;opacity=70;" parent="1" vertex="1">
          <mxGeometry x="406.33" y="360.76" width="97.83" height="12.62" as="geometry" />
        </mxCell>
        <mxCell id="uV9BMIo4u6kRQM5plzWS-9" value="&lt;div style=&quot;font-size: 9px;&quot;&gt;&lt;font style=&quot;font-size: 9px;&quot;&gt;Bindings-Layer Shims&lt;/font&gt;&lt;/div&gt;" style="rounded=0;whiteSpace=wrap;html=1;fontSize=9;strokeColor=#000000;rotation=-90;spacingBottom=1;fillColor=#f5f5f5;fontColor=#000000;spacingTop=1;opacity=60;" parent="1" vertex="1">
          <mxGeometry x="419.63" y="359.79" width="97.9" height="13.8" as="geometry" />
        </mxCell>
        <mxCell id="sE20zOCeqY2HCu54HOSV-52" style="edgeStyle=orthogonalEdgeStyle;rounded=0;orthogonalLoop=1;jettySize=auto;html=1;exitX=1;exitY=0.5;exitDx=0;exitDy=0;entryX=1.006;entryY=0.501;entryDx=0;entryDy=0;entryPerimeter=0;fontSize=5;fontColor=#666666;endArrow=openThin;endFill=0;strokeWidth=0.75;opacity=90;" edge="1" parent="1" source="uV9BMIo4u6kRQM5plzWS-9" target="uV9BMIo4u6kRQM5plzWS-9">
          <mxGeometry relative="1" as="geometry" />
        </mxCell>
      </root>
    </mxGraphModel>
  </diagram>
  <diagram name="replay-queue" id="8CG1scbjux4TmLELiepb">
    <mxGraphModel dx="1588" dy="729" grid="1" gridSize="1" guides="1" tooltips="1" connect="1" arrows="1" fold="1" page="0" pageScale="1" pageWidth="850" pageHeight="1100" background="#ffffff" math="0" shadow="1">
      <root>
        <mxCell id="0" />
        <mxCell id="1" parent="0" />
        <mxCell id="6AfPNP7fTVY9uye5-XHz-8" value="" style="endArrow=none;dashed=1;html=1;rounded=0;" parent="1" edge="1">
          <mxGeometry width="50" height="50" relative="1" as="geometry">
            <mxPoint x="250" y="423" as="sourcePoint" />
            <mxPoint x="250" y="230" as="targetPoint" />
          </mxGeometry>
        </mxCell>
        <mxCell id="6AfPNP7fTVY9uye5-XHz-20" value="&lt;div&gt;&lt;b&gt;Replay Operation &lt;br&gt;&lt;/b&gt;&lt;/div&gt;&lt;div&gt;&lt;b&gt;Queue&lt;/b&gt;&lt;br&gt;&lt;/div&gt;" style="text;html=1;strokeColor=none;fillColor=none;align=center;verticalAlign=middle;whiteSpace=wrap;rounded=0;" parent="1" vertex="1">
          <mxGeometry x="100" y="400" width="130" height="30" as="geometry" />
        </mxCell>
        <mxCell id="6AfPNP7fTVY9uye5-XHz-26" value="Event JEU" style="swimlane;fontStyle=1;childLayout=stackLayout;horizontal=1;startSize=30;horizontalStack=0;resizeParent=1;resizeParentMax=0;resizeLast=0;collapsible=1;marginBottom=0;strokeColor=#36393d;strokeWidth=2;fillColor=#FF6666;" parent="1" vertex="1">
          <mxGeometry x="437" y="235" width="140" height="102" as="geometry" />
        </mxCell>
        <mxCell id="6AfPNP7fTVY9uye5-XHz-27" value="eventType: &#39;mouseClick&#39;" style="text;strokeColor=none;fillColor=none;align=left;verticalAlign=middle;spacingLeft=4;spacingRight=4;overflow=hidden;points=[[0,0.5],[1,0.5]];portConstraint=eastwest;rotatable=0;" parent="6AfPNP7fTVY9uye5-XHz-26" vertex="1">
          <mxGeometry y="30" width="140" height="18" as="geometry" />
        </mxCell>
        <mxCell id="6AfPNP7fTVY9uye5-XHz-47" value="Attrs: {&#39;x&#39; : 125, &#39;y&#39; : 90}&#xa;" style="text;strokeColor=none;fillColor=none;align=left;verticalAlign=middle;spacingLeft=4;spacingRight=4;overflow=hidden;points=[[0,0.5],[1,0.5]];portConstraint=eastwest;rotatable=0;" parent="6AfPNP7fTVY9uye5-XHz-26" vertex="1">
          <mxGeometry y="48" width="140" height="18" as="geometry" />
        </mxCell>
        <mxCell id="6AfPNP7fTVY9uye5-XHz-28" value="FrameId: 1, TargetId: 25" style="text;strokeColor=none;fillColor=none;align=left;verticalAlign=middle;spacingLeft=4;spacingRight=4;overflow=hidden;points=[[0,0.5],[1,0.5]];portConstraint=eastwest;rotatable=0;" parent="6AfPNP7fTVY9uye5-XHz-26" vertex="1">
          <mxGeometry y="66" width="140" height="18" as="geometry" />
        </mxCell>
        <mxCell id="6AfPNP7fTVY9uye5-XHz-29" value="Sequence ID: 9" style="text;strokeColor=none;fillColor=none;align=left;verticalAlign=middle;spacingLeft=4;spacingRight=4;overflow=hidden;points=[[0,0.5],[1,0.5]];portConstraint=eastwest;rotatable=0;" parent="6AfPNP7fTVY9uye5-XHz-26" vertex="1">
          <mxGeometry y="84" width="140" height="18" as="geometry" />
        </mxCell>
        <mxCell id="6AfPNP7fTVY9uye5-XHz-36" value="DOM Construction" style="swimlane;fontStyle=1;childLayout=stackLayout;horizontal=1;startSize=25;horizontalStack=0;resizeParent=1;resizeParentMax=0;resizeLast=0;collapsible=1;marginBottom=0;fontFamily=Helvetica;strokeColor=#000000;strokeWidth=2;fillColor=#FFB570;gradientColor=none;" parent="1" vertex="1">
          <mxGeometry x="433" y="354" width="170" height="93" as="geometry">
            <mxRectangle x="433" y="354" width="134" height="25" as="alternateBounds" />
          </mxGeometry>
        </mxCell>
        <mxCell id="6AfPNP7fTVY9uye5-XHz-37" value="NodeID: 25, FrameID: 1" style="text;strokeColor=none;fillColor=none;align=left;verticalAlign=middle;spacingLeft=4;spacingRight=4;overflow=hidden;points=[[0,0.5],[1,0.5]];portConstraint=eastwest;rotatable=0;fontFamily=Helvetica;" parent="6AfPNP7fTVY9uye5-XHz-36" vertex="1">
          <mxGeometry y="25" width="170" height="17" as="geometry" />
        </mxCell>
        <mxCell id="6AfPNP7fTVY9uye5-XHz-42" value="Tag Type: &lt;a&gt;" style="text;strokeColor=none;fillColor=none;align=left;verticalAlign=middle;spacingLeft=4;spacingRight=4;overflow=hidden;points=[[0,0.5],[1,0.5]];portConstraint=eastwest;rotatable=0;fontFamily=Helvetica;" parent="6AfPNP7fTVY9uye5-XHz-36" vertex="1">
          <mxGeometry y="42" width="170" height="17" as="geometry" />
        </mxCell>
        <mxCell id="6AfPNP7fTVY9uye5-XHz-39" value="Attrs : { &#39;href&#39; : &#39;example.com&#39; }" style="text;strokeColor=none;fillColor=none;align=left;verticalAlign=middle;spacingLeft=4;spacingRight=4;overflow=hidden;points=[[0,0.5],[1,0.5]];portConstraint=eastwest;rotatable=0;fontFamily=Helvetica;" parent="6AfPNP7fTVY9uye5-XHz-36" vertex="1">
          <mxGeometry y="59" width="170" height="17" as="geometry" />
        </mxCell>
        <mxCell id="6AfPNP7fTVY9uye5-XHz-44" value="ParentID: 5, SiblingID: 25" style="text;strokeColor=none;fillColor=none;align=left;verticalAlign=middle;spacingLeft=4;spacingRight=4;overflow=hidden;points=[[0,0.5],[1,0.5]];portConstraint=eastwest;rotatable=0;fontFamily=Helvetica;" parent="6AfPNP7fTVY9uye5-XHz-36" vertex="1">
          <mxGeometry y="76" width="170" height="17" as="geometry" />
        </mxCell>
        <mxCell id="6AfPNP7fTVY9uye5-XHz-48" value="Callback JEU" style="swimlane;fontStyle=1;childLayout=stackLayout;horizontal=1;startSize=30;horizontalStack=0;resizeParent=1;resizeParentMax=0;resizeLast=0;collapsible=1;marginBottom=0;strokeColor=#36393d;strokeWidth=2;fillColor=#007FFF;" parent="1" vertex="1">
          <mxGeometry x="271" y="233" width="150" height="102" as="geometry" />
        </mxCell>
        <mxCell id="6AfPNP7fTVY9uye5-XHz-49" value="eventType: &#39;setTimeout&#39;" style="text;strokeColor=none;fillColor=none;align=left;verticalAlign=middle;spacingLeft=4;spacingRight=4;overflow=hidden;points=[[0,0.5],[1,0.5]];portConstraint=eastwest;rotatable=0;" parent="6AfPNP7fTVY9uye5-XHz-48" vertex="1">
          <mxGeometry y="30" width="150" height="18" as="geometry" />
        </mxCell>
        <mxCell id="6AfPNP7fTVY9uye5-XHz-53" value="FrameId: 1" style="text;strokeColor=none;fillColor=none;align=left;verticalAlign=middle;spacingLeft=4;spacingRight=4;overflow=hidden;points=[[0,0.5],[1,0.5]];portConstraint=eastwest;rotatable=0;" parent="6AfPNP7fTVY9uye5-XHz-48" vertex="1">
          <mxGeometry y="48" width="150" height="18" as="geometry" />
        </mxCell>
        <mxCell id="6AfPNP7fTVY9uye5-XHz-50" value="Attrs : {&#39;timeout&#39; : 1000 }" style="text;strokeColor=none;fillColor=none;align=left;verticalAlign=middle;spacingLeft=4;spacingRight=4;overflow=hidden;points=[[0,0.5],[1,0.5]];portConstraint=eastwest;rotatable=0;" parent="6AfPNP7fTVY9uye5-XHz-48" vertex="1">
          <mxGeometry y="66" width="150" height="18" as="geometry" />
        </mxCell>
        <mxCell id="6AfPNP7fTVY9uye5-XHz-52" value="Sequence ID: 5" style="text;strokeColor=none;fillColor=none;align=left;verticalAlign=middle;spacingLeft=4;spacingRight=4;overflow=hidden;points=[[0,0.5],[1,0.5]];portConstraint=eastwest;rotatable=0;" parent="6AfPNP7fTVY9uye5-XHz-48" vertex="1">
          <mxGeometry y="84" width="150" height="18" as="geometry" />
        </mxCell>
        <mxCell id="1mfXgMCo05CAt0noCFA6-1" value="" style="group" parent="1" vertex="1" connectable="0">
          <mxGeometry x="100" y="230" width="130" height="160" as="geometry" />
        </mxCell>
        <mxCell id="6AfPNP7fTVY9uye5-XHz-1" value="&lt;b&gt;DOM Construction&lt;/b&gt;" style="rounded=0;whiteSpace=wrap;html=1;fillColor=#FFB570;strokeColor=#000000;strokeWidth=2;" parent="1mfXgMCo05CAt0noCFA6-1" vertex="1">
          <mxGeometry y="60" width="130" height="20" as="geometry" />
        </mxCell>
        <mxCell id="6AfPNP7fTVY9uye5-XHz-2" value="&lt;b&gt;Callback JEU&lt;br&gt;&lt;/b&gt;" style="rounded=0;whiteSpace=wrap;html=1;fillColor=#007FFF;strokeColor=#36393d;strokeWidth=2;" parent="1mfXgMCo05CAt0noCFA6-1" vertex="1">
          <mxGeometry y="80" width="130" height="20" as="geometry" />
        </mxCell>
        <mxCell id="6AfPNP7fTVY9uye5-XHz-3" value="&lt;b&gt;DOM Construction&lt;/b&gt;" style="rounded=0;whiteSpace=wrap;html=1;fillColor=#FFB570;strokeColor=#36393d;strokeWidth=2;" parent="1mfXgMCo05CAt0noCFA6-1" vertex="1">
          <mxGeometry y="100" width="130" height="20" as="geometry" />
        </mxCell>
        <mxCell id="6AfPNP7fTVY9uye5-XHz-4" value="&lt;b&gt;Script JEU&lt;br&gt;&lt;/b&gt;" style="rounded=0;whiteSpace=wrap;html=1;fillColor=#f5f5f5;strokeColor=#666666;strokeWidth=2;fontColor=#333333;" parent="1mfXgMCo05CAt0noCFA6-1" vertex="1">
          <mxGeometry y="120" width="130" height="20" as="geometry" />
        </mxCell>
        <mxCell id="6AfPNP7fTVY9uye5-XHz-5" value="&lt;b&gt;Event JEU&lt;br&gt;&lt;/b&gt;" style="rounded=0;whiteSpace=wrap;html=1;fillColor=#FF6666;strokeColor=#36393d;gradientColor=none;strokeWidth=2;" parent="1mfXgMCo05CAt0noCFA6-1" vertex="1">
          <mxGeometry y="140" width="130" height="20" as="geometry" />
        </mxCell>
        <mxCell id="6AfPNP7fTVY9uye5-XHz-7" value="&lt;b&gt;Script JEU&lt;br&gt;&lt;/b&gt;" style="rounded=0;whiteSpace=wrap;html=1;fillColor=#f5f5f5;strokeColor=#666666;strokeWidth=2;fontColor=#333333;" parent="1mfXgMCo05CAt0noCFA6-1" vertex="1">
          <mxGeometry y="40" width="130" height="20" as="geometry" />
        </mxCell>
        <mxCell id="6AfPNP7fTVY9uye5-XHz-18" value="&lt;b&gt;DOM Construction&lt;/b&gt;" style="rounded=0;whiteSpace=wrap;html=1;fillColor=#FFB570;strokeColor=#000000;strokeWidth=2;" parent="1mfXgMCo05CAt0noCFA6-1" vertex="1">
          <mxGeometry y="20" width="130" height="20" as="geometry" />
        </mxCell>
        <mxCell id="6AfPNP7fTVY9uye5-XHz-19" value="&lt;b&gt;DOM Construction&lt;/b&gt;" style="rounded=0;whiteSpace=wrap;html=1;fillColor=#FFB570;strokeColor=#000000;strokeWidth=2;" parent="1mfXgMCo05CAt0noCFA6-1" vertex="1">
          <mxGeometry width="130" height="20" as="geometry" />
        </mxCell>
        <mxCell id="sav1Tnnl0FX4QnvE-RMI-1" value="Script JEU" style="swimlane;fontStyle=1;childLayout=stackLayout;horizontal=1;startSize=30;horizontalStack=0;resizeParent=1;resizeParentMax=0;resizeLast=0;collapsible=1;marginBottom=0;strokeColor=#666666;strokeWidth=2;fillColor=#f5f5f5;fontColor=#333333;" parent="1" vertex="1">
          <mxGeometry x="271" y="344" width="150" height="102" as="geometry" />
        </mxCell>
        <mxCell id="sav1Tnnl0FX4QnvE-RMI-2" value="eventType: &#39;script&#39;" style="text;strokeColor=none;fillColor=none;align=left;verticalAlign=middle;spacingLeft=4;spacingRight=4;overflow=hidden;points=[[0,0.5],[1,0.5]];portConstraint=eastwest;rotatable=0;" parent="sav1Tnnl0FX4QnvE-RMI-1" vertex="1">
          <mxGeometry y="30" width="150" height="18" as="geometry" />
        </mxCell>
        <mxCell id="sav1Tnnl0FX4QnvE-RMI-3" value="FrameId: 1" style="text;strokeColor=none;fillColor=none;align=left;verticalAlign=middle;spacingLeft=4;spacingRight=4;overflow=hidden;points=[[0,0.5],[1,0.5]];portConstraint=eastwest;rotatable=0;" parent="sav1Tnnl0FX4QnvE-RMI-1" vertex="1">
          <mxGeometry y="48" width="150" height="18" as="geometry" />
        </mxCell>
        <mxCell id="sav1Tnnl0FX4QnvE-RMI-4" value="hash : {&#39;timeout&#39; : 1000 }" style="text;strokeColor=none;fillColor=none;align=left;verticalAlign=middle;spacingLeft=4;spacingRight=4;overflow=hidden;points=[[0,0.5],[1,0.5]];portConstraint=eastwest;rotatable=0;" parent="sav1Tnnl0FX4QnvE-RMI-1" vertex="1">
          <mxGeometry y="66" width="150" height="18" as="geometry" />
        </mxCell>
        <mxCell id="sav1Tnnl0FX4QnvE-RMI-5" value="Sequence ID: 3" style="text;strokeColor=none;fillColor=none;align=left;verticalAlign=middle;spacingLeft=4;spacingRight=4;overflow=hidden;points=[[0,0.5],[1,0.5]];portConstraint=eastwest;rotatable=0;" parent="sav1Tnnl0FX4QnvE-RMI-1" vertex="1">
          <mxGeometry y="84" width="150" height="18" as="geometry" />
        </mxCell>
      </root>
    </mxGraphModel>
  </diagram>
  <diagram name="replay-dispatcher" id="PPiIyltW4fu5RRLQldBJ">
    <mxGraphModel dx="2189" dy="942" grid="1" gridSize="4" guides="1" tooltips="1" connect="1" arrows="1" fold="1" page="0" pageScale="1" pageWidth="850" pageHeight="1100" background="none" math="0" shadow="0">
      <root>
        <mxCell id="0" />
        <mxCell id="1" parent="0" />
        <mxCell id="yTfH6hNAUdOrwt5Qay-n-27" style="edgeStyle=orthogonalEdgeStyle;rounded=0;orthogonalLoop=1;jettySize=auto;html=1;dashed=1;fontFamily=Helvetica;fontSize=15;" parent="1" source="pv5wyb7LiYDZDBT7SySi-2" edge="1">
          <mxGeometry relative="1" as="geometry">
            <mxPoint x="56" y="246" as="targetPoint" />
          </mxGeometry>
        </mxCell>
        <mxCell id="pv5wyb7LiYDZDBT7SySi-2" value="&lt;div&gt;&lt;b&gt;Replay&lt;/b&gt;&lt;/div&gt;&lt;div&gt;&lt;b&gt;Dispatcher&lt;/b&gt;&lt;br&gt;&lt;/div&gt;" style="rounded=0;whiteSpace=wrap;html=1;fontFamily=Helvetica;strokeColor=#b85450;strokeWidth=2;fillColor=#f8cecc;" parent="1" vertex="1">
          <mxGeometry x="-108" y="216" width="72" height="60" as="geometry" />
        </mxCell>
        <mxCell id="pv5wyb7LiYDZDBT7SySi-3" value="&lt;b&gt;Layout&lt;/b&gt;" style="rounded=0;whiteSpace=wrap;html=1;fontFamily=Helvetica;strokeColor=#36393d;strokeWidth=2;fillColor=#eeeeee;" parent="1" vertex="1">
          <mxGeometry x="90" y="81" width="72" height="60" as="geometry" />
        </mxCell>
        <mxCell id="pv5wyb7LiYDZDBT7SySi-4" value="&lt;b&gt;Paint&lt;/b&gt;" style="rounded=0;whiteSpace=wrap;html=1;fontFamily=Helvetica;strokeColor=#36393d;strokeWidth=2;fillColor=#eeeeee;" parent="1" vertex="1">
          <mxGeometry x="162" y="81" width="72" height="60" as="geometry" />
        </mxCell>
        <mxCell id="pv5wyb7LiYDZDBT7SySi-5" value="..." style="rounded=0;whiteSpace=wrap;html=1;fontFamily=Helvetica;strokeWidth=2;" parent="1" vertex="1">
          <mxGeometry x="18" y="81" width="72" height="60" as="geometry" />
        </mxCell>
        <mxCell id="pv5wyb7LiYDZDBT7SySi-6" value="..." style="rounded=0;whiteSpace=wrap;html=1;fontFamily=Helvetica;strokeWidth=2;" parent="1" vertex="1">
          <mxGeometry x="234" y="81" width="72" height="60" as="geometry" />
        </mxCell>
        <mxCell id="q9ply31Cm1G_fm_8ka1U-9" value="" style="group" parent="1" vertex="1" connectable="0">
          <mxGeometry x="63" y="207" width="71" height="85" as="geometry" />
        </mxCell>
        <mxCell id="q9ply31Cm1G_fm_8ka1U-1" value="" style="rounded=0;whiteSpace=wrap;html=1;fillColor=#FFE6CC;strokeColor=#000000;strokeWidth=2;" parent="q9ply31Cm1G_fm_8ka1U-9" vertex="1">
          <mxGeometry y="31.875" width="71" height="10.625" as="geometry" />
        </mxCell>
        <mxCell id="q9ply31Cm1G_fm_8ka1U-2" value="&lt;b&gt;&lt;br&gt;&lt;/b&gt;" style="rounded=0;whiteSpace=wrap;html=1;fillColor=#DAE8FC;strokeColor=#36393d;strokeWidth=2;" parent="q9ply31Cm1G_fm_8ka1U-9" vertex="1">
          <mxGeometry y="42.5" width="71" height="10.625" as="geometry" />
        </mxCell>
        <mxCell id="q9ply31Cm1G_fm_8ka1U-3" value="" style="rounded=0;whiteSpace=wrap;html=1;fillColor=#FFE6CC;strokeColor=#36393d;strokeWidth=2;" parent="q9ply31Cm1G_fm_8ka1U-9" vertex="1">
          <mxGeometry y="53.125" width="71" height="10.625" as="geometry" />
        </mxCell>
        <mxCell id="q9ply31Cm1G_fm_8ka1U-4" value="&lt;b&gt;&lt;br&gt;&lt;/b&gt;" style="rounded=0;whiteSpace=wrap;html=1;fillColor=#F8CECC;strokeColor=#36393d;strokeWidth=2;" parent="q9ply31Cm1G_fm_8ka1U-9" vertex="1">
          <mxGeometry y="63.75" width="71" height="10.625" as="geometry" />
        </mxCell>
        <mxCell id="q9ply31Cm1G_fm_8ka1U-5" value="&lt;b&gt;&lt;br&gt;&lt;/b&gt;" style="rounded=0;whiteSpace=wrap;html=1;fillColor=#F8CECC;strokeColor=#36393d;gradientColor=none;strokeWidth=2;" parent="q9ply31Cm1G_fm_8ka1U-9" vertex="1">
          <mxGeometry y="74.375" width="71" height="10.625" as="geometry" />
        </mxCell>
        <mxCell id="q9ply31Cm1G_fm_8ka1U-6" value="&lt;b&gt;&lt;br&gt;&lt;/b&gt;" style="rounded=0;whiteSpace=wrap;html=1;fillColor=#DAE8FC;strokeColor=#36393d;strokeWidth=2;" parent="q9ply31Cm1G_fm_8ka1U-9" vertex="1">
          <mxGeometry y="21.25" width="71" height="10.625" as="geometry" />
        </mxCell>
        <mxCell id="q9ply31Cm1G_fm_8ka1U-7" value="" style="rounded=0;whiteSpace=wrap;html=1;fillColor=#FFE6CC;strokeColor=#000000;strokeWidth=2;" parent="q9ply31Cm1G_fm_8ka1U-9" vertex="1">
          <mxGeometry y="10.625" width="71" height="10.625" as="geometry" />
        </mxCell>
        <mxCell id="q9ply31Cm1G_fm_8ka1U-8" value="" style="rounded=0;whiteSpace=wrap;html=1;fillColor=#FFE6CC;strokeColor=#000000;strokeWidth=2;rotation=20;" parent="1" vertex="1">
          <mxGeometry x="68" y="192" width="71" height="10.625" as="geometry" />
        </mxCell>
        <mxCell id="yTfH6hNAUdOrwt5Qay-n-25" style="edgeStyle=orthogonalEdgeStyle;rounded=0;orthogonalLoop=1;jettySize=auto;html=1;exitX=1;exitY=0.5;exitDx=0;exitDy=0;entryX=1;entryY=0.5;entryDx=0;entryDy=0;fontFamily=Helvetica;fontSize=15;dashed=1;" parent="1" source="q9ply31Cm1G_fm_8ka1U-12" target="q9ply31Cm1G_fm_8ka1U-14" edge="1">
          <mxGeometry relative="1" as="geometry" />
        </mxCell>
        <mxCell id="q9ply31Cm1G_fm_8ka1U-12" value="&lt;div&gt;&lt;b&gt;Replay&lt;/b&gt;&lt;/div&gt;&lt;div&gt;&lt;b&gt;Dispatcher&lt;/b&gt;&lt;br&gt;&lt;/div&gt;" style="rounded=0;whiteSpace=wrap;html=1;fontFamily=Helvetica;strokeColor=#b85450;strokeWidth=2;fillColor=#f8cecc;" parent="1" vertex="1">
          <mxGeometry x="360" y="216" width="72" height="60" as="geometry" />
        </mxCell>
        <mxCell id="q9ply31Cm1G_fm_8ka1U-14" value="&lt;div&gt;&lt;b&gt;Replay&lt;/b&gt;&lt;/div&gt;&lt;div&gt;&lt;b&gt;Dispatcher&lt;/b&gt;&lt;br&gt;&lt;/div&gt;" style="rounded=0;whiteSpace=wrap;html=1;fontFamily=Helvetica;strokeColor=#b85450;strokeWidth=2;fillColor=#f8cecc;" parent="1" vertex="1">
          <mxGeometry x="308" y="81" width="72" height="60" as="geometry" />
        </mxCell>
        <mxCell id="q9ply31Cm1G_fm_8ka1U-19" value="&lt;div align=&quot;center&quot;&gt;&lt;b&gt;Replay Operation&lt;/b&gt;&lt;/div&gt;" style="html=1;shadow=0;dashed=0;shape=mxgraph.atlassian.issue;issueType=story;issuePriority=blocker;issueStatus=inProgress;verticalAlign=top;align=center;whiteSpace=wrap;overflow=hidden;spacingTop=25;strokeColor=#FFB570;fillColor=#FFFFFF;fontSize=12;backgroundOutline=1;sketch=0;fontFamily=Helvetica;strokeWidth=3;" parent="1" vertex="1">
          <mxGeometry x="156" y="184" width="108" height="56" as="geometry" />
        </mxCell>
        <mxCell id="q9ply31Cm1G_fm_8ka1U-20" value="" style="strokeColor=none;fillColor=none;part=1;resizable=0;align=left;autosize=1;points=[];deletable=0;connectable=0;fontFamily=Helvetica;" parent="q9ply31Cm1G_fm_8ka1U-19" vertex="1">
          <mxGeometry width="28" height="20" relative="1" as="geometry">
            <mxPoint x="20" as="offset" />
          </mxGeometry>
        </mxCell>
        <mxCell id="yTfH6hNAUdOrwt5Qay-n-24" style="edgeStyle=orthogonalEdgeStyle;rounded=0;orthogonalLoop=1;jettySize=auto;html=1;exitX=0;exitY=0.5;exitDx=0;exitDy=0;entryX=0;entryY=0.5;entryDx=0;entryDy=0;fontFamily=Helvetica;fontSize=15;dashed=1;" parent="1" source="yTfH6hNAUdOrwt5Qay-n-6" target="pv5wyb7LiYDZDBT7SySi-2" edge="1">
          <mxGeometry relative="1" as="geometry" />
        </mxCell>
        <mxCell id="yTfH6hNAUdOrwt5Qay-n-6" value="&lt;div&gt;&lt;b&gt;Replay&lt;/b&gt;&lt;/div&gt;&lt;div&gt;&lt;b&gt;Dispatcher&lt;/b&gt;&lt;br&gt;&lt;/div&gt;" style="rounded=0;whiteSpace=wrap;html=1;fontFamily=Helvetica;strokeColor=#b85450;strokeWidth=2;fillColor=#f8cecc;" parent="1" vertex="1">
          <mxGeometry x="-54" y="81" width="72" height="60" as="geometry" />
        </mxCell>
        <mxCell id="yTfH6hNAUdOrwt5Qay-n-10" value="&lt;font style=&quot;font-size: 15px&quot;&gt;&lt;b&gt;Render Thread Task Queue&lt;/b&gt;&lt;/font&gt;" style="text;html=1;strokeColor=none;fillColor=none;align=center;verticalAlign=middle;whiteSpace=wrap;rounded=0;fontFamily=Helvetica;fontStyle=0" parent="1" vertex="1">
          <mxGeometry x="60" y="48" width="217" height="30" as="geometry" />
        </mxCell>
        <mxCell id="yTfH6hNAUdOrwt5Qay-n-18" value="&lt;div align=&quot;center&quot;&gt;&lt;b&gt;Replay Operation&lt;/b&gt;&lt;/div&gt;" style="html=1;shadow=0;dashed=0;shape=mxgraph.atlassian.issue;issueType=story;issuePriority=blocker;issueStatus=done;verticalAlign=top;align=center;whiteSpace=wrap;overflow=hidden;spacingTop=25;strokeColor=#FFB570;fillColor=#FFFFFF;fontSize=12;backgroundOutline=1;sketch=0;fontFamily=Helvetica;strokeWidth=3;" parent="1" vertex="1">
          <mxGeometry x="156" y="248" width="108" height="56" as="geometry" />
        </mxCell>
        <mxCell id="yTfH6hNAUdOrwt5Qay-n-19" value="" style="strokeColor=none;fillColor=none;part=1;resizable=0;align=left;autosize=1;points=[];deletable=0;connectable=0;fontFamily=Helvetica;" parent="yTfH6hNAUdOrwt5Qay-n-18" vertex="1">
          <mxGeometry width="28" height="20" relative="1" as="geometry">
            <mxPoint x="20" as="offset" />
          </mxGeometry>
        </mxCell>
        <mxCell id="q9ply31Cm1G_fm_8ka1U-11" value="" style="shape=singleArrow;whiteSpace=wrap;html=1;fontFamily=Helvetica;strokeColor=#36393d;strokeWidth=2;fillColor=#eeeeee;arrowWidth=0.3333333333333333;arrowSize=0.40625;rotation=90;" parent="1" vertex="1">
          <mxGeometry x="196" y="232.5" width="28" height="27" as="geometry" />
        </mxCell>
        <mxCell id="yTfH6hNAUdOrwt5Qay-n-30" style="edgeStyle=orthogonalEdgeStyle;rounded=0;orthogonalLoop=1;jettySize=auto;html=1;dashed=1;fontFamily=Helvetica;fontSize=15;" parent="1" edge="1">
          <mxGeometry relative="1" as="geometry">
            <mxPoint x="356" y="244" as="targetPoint" />
            <mxPoint x="264" y="244" as="sourcePoint" />
          </mxGeometry>
        </mxCell>
        <mxCell id="yTfH6hNAUdOrwt5Qay-n-33" value="&lt;font style=&quot;font-size: 12px&quot;&gt;&lt;b&gt;2. Complete Replay Operation&lt;/b&gt;&lt;/font&gt;" style="text;html=1;strokeColor=none;fillColor=none;align=center;verticalAlign=middle;whiteSpace=wrap;rounded=0;fontFamily=Helvetica;fontSize=15;" parent="1" vertex="1">
          <mxGeometry x="63" y="312" width="228" height="30" as="geometry" />
        </mxCell>
        <mxCell id="yTfH6hNAUdOrwt5Qay-n-34" value="&lt;font style=&quot;font-size: 12px&quot;&gt;&lt;b&gt;1. Dispatcher is Current Task&lt;/b&gt;&lt;/font&gt;" style="text;html=1;strokeColor=none;fillColor=none;align=center;verticalAlign=middle;whiteSpace=wrap;rounded=0;fontFamily=Helvetica;fontSize=15;" parent="1" vertex="1">
          <mxGeometry x="-190" y="312" width="236" height="30" as="geometry" />
        </mxCell>
        <mxCell id="yTfH6hNAUdOrwt5Qay-n-35" value="&lt;b&gt;&lt;font style=&quot;font-size: 12px&quot;&gt;3. Reschedule Replay Dispatcher&lt;/font&gt;&lt;/b&gt;" style="text;html=1;strokeColor=none;fillColor=none;align=center;verticalAlign=middle;whiteSpace=wrap;rounded=0;fontFamily=Helvetica;fontSize=15;" parent="1" vertex="1">
          <mxGeometry x="300" y="312" width="228" height="30" as="geometry" />
        </mxCell>
      </root>
    </mxGraphModel>
  </diagram>
  <diagram name="replay-operation-flow" id="ydJ7ixNMw5f2Y_wCcpjt">
    <mxGraphModel dx="1491" dy="785" grid="1" gridSize="1" guides="1" tooltips="1" connect="1" arrows="1" fold="1" page="1" pageScale="1" pageWidth="850" pageHeight="1100" math="0" shadow="0">
      <root>
        <mxCell id="0" />
        <mxCell id="1" parent="0" />
        <mxCell id="uYs5GYbTjYF1iJf1gCNO-10" value="" style="group;fillColor=none;" parent="1" vertex="1" connectable="0">
          <mxGeometry x="81" y="159" width="38.85" height="72" as="geometry" />
        </mxCell>
        <mxCell id="uYs5GYbTjYF1iJf1gCNO-1" value="" style="group" parent="uYs5GYbTjYF1iJf1gCNO-10" vertex="1" connectable="0">
          <mxGeometry y="17.269834627283434" width="36.365853658536594" height="54.73016537271657" as="geometry" />
        </mxCell>
        <mxCell id="uYs5GYbTjYF1iJf1gCNO-2" value="" style="rounded=0;whiteSpace=wrap;html=1;fillColor=#FFE6CC;strokeColor=#36393D;strokeWidth=2;" parent="uYs5GYbTjYF1iJf1gCNO-1" vertex="1">
          <mxGeometry y="20.523812014768712" width="36.365853658536594" height="6.841270671589571" as="geometry" />
        </mxCell>
        <mxCell id="uYs5GYbTjYF1iJf1gCNO-3" value="&lt;b&gt;&lt;br&gt;&lt;/b&gt;" style="rounded=0;whiteSpace=wrap;html=1;fillColor=#DAE8FC;strokeColor=#36393d;strokeWidth=2;" parent="uYs5GYbTjYF1iJf1gCNO-1" vertex="1">
          <mxGeometry y="27.365082686358285" width="36.365853658536594" height="6.841270671589571" as="geometry" />
        </mxCell>
        <mxCell id="uYs5GYbTjYF1iJf1gCNO-4" value="" style="rounded=0;whiteSpace=wrap;html=1;fillColor=#FFE6CC;strokeColor=#36393d;strokeWidth=2;" parent="uYs5GYbTjYF1iJf1gCNO-1" vertex="1">
          <mxGeometry y="34.206353357947854" width="36.365853658536594" height="6.841270671589571" as="geometry" />
        </mxCell>
        <mxCell id="uYs5GYbTjYF1iJf1gCNO-5" value="&lt;b&gt;&lt;br&gt;&lt;/b&gt;" style="rounded=0;whiteSpace=wrap;html=1;fillColor=#F8CECC;strokeColor=#36393d;strokeWidth=2;" parent="uYs5GYbTjYF1iJf1gCNO-1" vertex="1">
          <mxGeometry y="41.047624029537424" width="36.365853658536594" height="6.841270671589571" as="geometry" />
        </mxCell>
        <mxCell id="uYs5GYbTjYF1iJf1gCNO-6" value="&lt;b&gt;&lt;br&gt;&lt;/b&gt;" style="rounded=0;whiteSpace=wrap;html=1;fillColor=#F8CECC;strokeColor=#36393d;gradientColor=none;strokeWidth=2;" parent="uYs5GYbTjYF1iJf1gCNO-1" vertex="1">
          <mxGeometry y="47.888894701127" width="36.365853658536594" height="6.841270671589571" as="geometry" />
        </mxCell>
        <mxCell id="uYs5GYbTjYF1iJf1gCNO-7" value="&lt;b&gt;&lt;br&gt;&lt;/b&gt;" style="rounded=0;whiteSpace=wrap;html=1;fillColor=#DAE8FC;strokeColor=#36393d;strokeWidth=2;" parent="uYs5GYbTjYF1iJf1gCNO-1" vertex="1">
          <mxGeometry y="13.682541343179143" width="36.365853658536594" height="6.841270671589571" as="geometry" />
        </mxCell>
        <mxCell id="uYs5GYbTjYF1iJf1gCNO-8" value="" style="rounded=0;whiteSpace=wrap;html=1;fillColor=#FFE6CC;strokeColor=#36393D;strokeWidth=2;" parent="uYs5GYbTjYF1iJf1gCNO-1" vertex="1">
          <mxGeometry y="6.841270671589571" width="36.365853658536594" height="6.841270671589571" as="geometry" />
        </mxCell>
        <mxCell id="uYs5GYbTjYF1iJf1gCNO-9" value="" style="rounded=0;whiteSpace=wrap;html=1;fillColor=#FFE6CC;strokeColor=#000000;strokeWidth=2;rotation=20;" parent="uYs5GYbTjYF1iJf1gCNO-10" vertex="1">
          <mxGeometry x="5.045121951219513" y="8.164452905012306" width="33.804878048780495" height="6.844490093082084" as="geometry" />
        </mxCell>
        <mxCell id="gmNAEPVBI3RKtHUMiGFQ-9" style="edgeStyle=orthogonalEdgeStyle;rounded=0;orthogonalLoop=1;jettySize=auto;html=1;exitX=0.5;exitY=1;exitDx=0;exitDy=0;entryX=0.5;entryY=0;entryDx=0;entryDy=0;startArrow=none;startFill=0;endArrow=none;endFill=0;dashed=1;" parent="1" source="apoN05toFRVQ8jzYR4Kh-1" target="t0CYV38w4iB7tC78BSTa-16" edge="1">
          <mxGeometry relative="1" as="geometry">
            <mxPoint x="337.5000000000001" y="290" as="targetPoint" />
            <Array as="points">
              <mxPoint x="229" y="253" />
              <mxPoint x="338" y="253" />
            </Array>
          </mxGeometry>
        </mxCell>
        <mxCell id="apoN05toFRVQ8jzYR4Kh-1" value="&lt;div&gt;&lt;b&gt;Replay&lt;/b&gt;&lt;/div&gt;&lt;div&gt;&lt;b&gt;Dispatcher&lt;/b&gt;&lt;br&gt;&lt;/div&gt;" style="rounded=0;whiteSpace=wrap;html=1;fontFamily=Helvetica;strokeColor=#b85450;strokeWidth=2;fillColor=#f8cecc;" parent="1" vertex="1">
          <mxGeometry x="192.5" y="170" width="72" height="50" as="geometry" />
        </mxCell>
        <mxCell id="gmNAEPVBI3RKtHUMiGFQ-1" value="" style="endArrow=none;html=1;rounded=0;entryX=0.5;entryY=1;entryDx=0;entryDy=0;edgeStyle=orthogonalEdgeStyle;endFill=0;startArrow=none;startFill=1;dashed=1;exitX=1;exitY=0.5;exitDx=0;exitDy=0;" parent="1" source="_U3s51kMK6_Sq0Nan9so-37" target="apoN05toFRVQ8jzYR4Kh-1" edge="1">
          <mxGeometry width="50" height="50" relative="1" as="geometry">
            <mxPoint x="173" y="250" as="sourcePoint" />
            <mxPoint x="410" y="279" as="targetPoint" />
            <Array as="points">
              <mxPoint x="190" y="253" />
              <mxPoint x="229" y="253" />
            </Array>
          </mxGeometry>
        </mxCell>
        <mxCell id="gmNAEPVBI3RKtHUMiGFQ-2" value="" style="endArrow=none;dashed=1;html=1;rounded=0;exitX=0.5;exitY=0;exitDx=0;exitDy=0;" parent="1" source="t0CYV38w4iB7tC78BSTa-6" edge="1">
          <mxGeometry width="50" height="50" relative="1" as="geometry">
            <mxPoint x="228.5" y="289.99999999999994" as="sourcePoint" />
            <mxPoint x="229" y="250" as="targetPoint" />
          </mxGeometry>
        </mxCell>
        <mxCell id="_U3s51kMK6_Sq0Nan9so-1" value="" style="endArrow=none;dashed=1;html=1;rounded=0;fontSize=8;" parent="1" edge="1">
          <mxGeometry width="50" height="50" relative="1" as="geometry">
            <mxPoint x="395" y="348.42" as="sourcePoint" />
            <mxPoint x="395" y="158.42" as="targetPoint" />
          </mxGeometry>
        </mxCell>
        <mxCell id="8sTvoNBSmKstpfrEg4xR-40" style="edgeStyle=orthogonalEdgeStyle;rounded=0;sketch=0;orthogonalLoop=1;jettySize=auto;html=1;exitX=1;exitY=0.5;exitDx=0;exitDy=0;entryX=0.5;entryY=0;entryDx=0;entryDy=0;shadow=0;dashed=1;endArrow=none;endFill=0;" parent="1" source="_U3s51kMK6_Sq0Nan9so-9" target="t0CYV38w4iB7tC78BSTa-20" edge="1">
          <mxGeometry relative="1" as="geometry">
            <mxPoint x="519" y="178" as="targetPoint" />
          </mxGeometry>
        </mxCell>
        <mxCell id="_U3s51kMK6_Sq0Nan9so-9" value="" style="rounded=0;whiteSpace=wrap;html=1;fillColor=#FFE6CC;strokeColor=#000000;strokeWidth=2;rotation=0;" parent="1" vertex="1">
          <mxGeometry x="458" y="152.15" width="30" height="6.85" as="geometry" />
        </mxCell>
        <mxCell id="8sTvoNBSmKstpfrEg4xR-47" style="edgeStyle=orthogonalEdgeStyle;rounded=0;sketch=0;orthogonalLoop=1;jettySize=auto;html=1;exitX=0.5;exitY=1;exitDx=0;exitDy=0;shadow=0;dashed=1;startArrow=none;startFill=0;endArrow=classic;endFill=1;" parent="1" edge="1">
          <mxGeometry relative="1" as="geometry">
            <mxPoint x="442" y="299" as="targetPoint" />
            <mxPoint x="442" y="281" as="sourcePoint" />
          </mxGeometry>
        </mxCell>
        <mxCell id="_U3s51kMK6_Sq0Nan9so-11" value="&lt;div style=&quot;font-size: 12px&quot;&gt;&lt;font style=&quot;font-size: 12px&quot;&gt;DOM&lt;/font&gt;&lt;/div&gt;&lt;div style=&quot;font-size: 12px&quot;&gt;&lt;font style=&quot;font-size: 12px&quot;&gt;Replayer&lt;br&gt;&lt;/font&gt;&lt;/div&gt;" style="rounded=0;whiteSpace=wrap;html=1;fontSize=8;strokeColor=#36393d;fillColor=#FFE6CC;strokeWidth=2;" parent="1" vertex="1">
          <mxGeometry x="413" y="251" width="58" height="31" as="geometry" />
        </mxCell>
        <mxCell id="8sTvoNBSmKstpfrEg4xR-42" style="edgeStyle=orthogonalEdgeStyle;rounded=0;sketch=0;orthogonalLoop=1;jettySize=auto;html=1;exitX=0.5;exitY=0;exitDx=0;exitDy=0;shadow=0;dashed=1;endArrow=none;endFill=0;" parent="1" source="_U3s51kMK6_Sq0Nan9so-12" edge="1">
          <mxGeometry relative="1" as="geometry">
            <mxPoint x="519" y="218" as="targetPoint" />
          </mxGeometry>
        </mxCell>
        <mxCell id="8sTvoNBSmKstpfrEg4xR-51" style="edgeStyle=orthogonalEdgeStyle;rounded=0;sketch=0;orthogonalLoop=1;jettySize=auto;html=1;exitX=0.5;exitY=1;exitDx=0;exitDy=0;shadow=0;dashed=1;startArrow=none;startFill=0;endArrow=classic;endFill=1;" parent="1" source="_U3s51kMK6_Sq0Nan9so-12" edge="1">
          <mxGeometry relative="1" as="geometry">
            <mxPoint x="519.0032362459547" y="299" as="targetPoint" />
          </mxGeometry>
        </mxCell>
        <mxCell id="_U3s51kMK6_Sq0Nan9so-12" value="&lt;div style=&quot;font-size: 12px&quot;&gt;&lt;font style=&quot;font-size: 12px&quot;&gt;JS&lt;/font&gt;&lt;/div&gt;&lt;div style=&quot;font-size: 12px&quot;&gt;&lt;font style=&quot;font-size: 12px&quot;&gt;Replayer&lt;/font&gt;&lt;br&gt;&lt;/div&gt;" style="rounded=0;whiteSpace=wrap;html=1;fontSize=8;strokeColor=#36393d;fillColor=#F8CECC;strokeWidth=2;" parent="1" vertex="1">
          <mxGeometry x="491" y="249" width="56" height="33" as="geometry" />
        </mxCell>
        <mxCell id="8sTvoNBSmKstpfrEg4xR-46" style="edgeStyle=orthogonalEdgeStyle;rounded=0;sketch=0;orthogonalLoop=1;jettySize=auto;html=1;exitX=0.5;exitY=0;exitDx=0;exitDy=0;shadow=0;dashed=1;startArrow=none;startFill=0;endArrow=none;endFill=0;" parent="1" source="_U3s51kMK6_Sq0Nan9so-13" edge="1">
          <mxGeometry relative="1" as="geometry">
            <mxPoint x="519" y="230" as="targetPoint" />
            <Array as="points">
              <mxPoint x="594" y="231" />
              <mxPoint x="519" y="231" />
            </Array>
          </mxGeometry>
        </mxCell>
        <mxCell id="8sTvoNBSmKstpfrEg4xR-52" style="edgeStyle=orthogonalEdgeStyle;rounded=0;sketch=0;orthogonalLoop=1;jettySize=auto;html=1;exitX=0.5;exitY=1;exitDx=0;exitDy=0;shadow=0;dashed=1;startArrow=none;startFill=0;endArrow=classic;endFill=1;" parent="1" source="_U3s51kMK6_Sq0Nan9so-13" edge="1">
          <mxGeometry relative="1" as="geometry">
            <mxPoint x="594" y="299" as="targetPoint" />
            <Array as="points">
              <mxPoint x="594" y="291" />
              <mxPoint x="594" y="291" />
            </Array>
          </mxGeometry>
        </mxCell>
        <mxCell id="_U3s51kMK6_Sq0Nan9so-13" value="&lt;div&gt;&lt;br&gt;&lt;/div&gt;&lt;div style=&quot;font-size: 12px&quot;&gt;&lt;font style=&quot;font-size: 12px&quot;&gt;Event&lt;br&gt;&lt;/font&gt;&lt;/div&gt;&lt;div style=&quot;font-size: 12px&quot;&gt;&lt;font style=&quot;font-size: 12px&quot;&gt;Replayer&lt;/font&gt;&lt;/div&gt;&lt;div&gt;&lt;br&gt;&lt;/div&gt;" style="rounded=0;whiteSpace=wrap;html=1;fontSize=8;strokeColor=#36393d;fillColor=#DAE8FC;strokeWidth=2;" parent="1" vertex="1">
          <mxGeometry x="565" y="249" width="58" height="33" as="geometry" />
        </mxCell>
        <mxCell id="_U3s51kMK6_Sq0Nan9so-16" style="orthogonalLoop=1;jettySize=auto;html=1;exitX=0.855;exitY=0.145;exitDx=0;exitDy=0;exitPerimeter=0;entryX=0.5;entryY=0;entryDx=0;entryDy=0;entryPerimeter=0;fontSize=8;startArrow=none;startFill=0;endArrow=none;endFill=0;rounded=0;" parent="1" source="_U3s51kMK6_Sq0Nan9so-18" target="_U3s51kMK6_Sq0Nan9so-21" edge="1">
          <mxGeometry relative="1" as="geometry" />
        </mxCell>
        <mxCell id="_U3s51kMK6_Sq0Nan9so-17" style="orthogonalLoop=1;jettySize=auto;html=1;exitX=0.855;exitY=0.855;exitDx=0;exitDy=0;exitPerimeter=0;entryX=0.5;entryY=0;entryDx=0;entryDy=0;entryPerimeter=0;fontSize=8;startArrow=none;startFill=0;endArrow=none;endFill=0;" parent="1" source="_U3s51kMK6_Sq0Nan9so-18" target="_U3s51kMK6_Sq0Nan9so-22" edge="1">
          <mxGeometry relative="1" as="geometry" />
        </mxCell>
        <mxCell id="_U3s51kMK6_Sq0Nan9so-18" value="" style="verticalLabelPosition=bottom;verticalAlign=top;html=1;shape=mxgraph.flowchart.on-page_reference;fontSize=8;" parent="1" vertex="1">
          <mxGeometry x="437" y="301" width="10" height="9" as="geometry" />
        </mxCell>
        <mxCell id="_U3s51kMK6_Sq0Nan9so-19" style="edgeStyle=none;rounded=0;orthogonalLoop=1;jettySize=auto;html=1;exitX=0.145;exitY=0.855;exitDx=0;exitDy=0;exitPerimeter=0;entryX=0.5;entryY=0;entryDx=0;entryDy=0;entryPerimeter=0;fontSize=8;startArrow=none;startFill=0;endArrow=none;endFill=0;" parent="1" source="_U3s51kMK6_Sq0Nan9so-21" target="_U3s51kMK6_Sq0Nan9so-23" edge="1">
          <mxGeometry relative="1" as="geometry" />
        </mxCell>
        <mxCell id="_U3s51kMK6_Sq0Nan9so-20" style="edgeStyle=none;rounded=0;orthogonalLoop=1;jettySize=auto;html=1;exitX=0.855;exitY=0.855;exitDx=0;exitDy=0;exitPerimeter=0;entryX=0.323;entryY=0.128;entryDx=0;entryDy=0;entryPerimeter=0;fontSize=8;startArrow=none;startFill=0;endArrow=none;endFill=0;" parent="1" source="_U3s51kMK6_Sq0Nan9so-21" target="_U3s51kMK6_Sq0Nan9so-24" edge="1">
          <mxGeometry relative="1" as="geometry" />
        </mxCell>
        <mxCell id="_U3s51kMK6_Sq0Nan9so-21" value="" style="verticalLabelPosition=bottom;verticalAlign=top;html=1;shape=mxgraph.flowchart.on-page_reference;fontSize=8;" parent="1" vertex="1">
          <mxGeometry x="426" y="317" width="10" height="9" as="geometry" />
        </mxCell>
        <mxCell id="_U3s51kMK6_Sq0Nan9so-22" value="" style="verticalLabelPosition=bottom;verticalAlign=top;html=1;shape=mxgraph.flowchart.on-page_reference;fontSize=8;" parent="1" vertex="1">
          <mxGeometry x="447" y="317" width="10" height="9" as="geometry" />
        </mxCell>
        <mxCell id="_U3s51kMK6_Sq0Nan9so-23" value="" style="verticalLabelPosition=bottom;verticalAlign=top;html=1;shape=mxgraph.flowchart.on-page_reference;fontSize=8;fillColor=#FFE6CC;" parent="1" vertex="1">
          <mxGeometry x="418" y="331" width="10" height="9" as="geometry" />
        </mxCell>
        <mxCell id="_U3s51kMK6_Sq0Nan9so-24" value="" style="verticalLabelPosition=bottom;verticalAlign=top;html=1;shape=mxgraph.flowchart.on-page_reference;fontSize=8;" parent="1" vertex="1">
          <mxGeometry x="435" y="331" width="10" height="9" as="geometry" />
        </mxCell>
        <mxCell id="8sTvoNBSmKstpfrEg4xR-3" value="" style="shape=image;verticalLabelPosition=bottom;labelBackgroundColor=default;verticalAlign=top;aspect=fixed;imageAspect=0;image=data:image/svg+xml,PHN2ZyB2ZXJzaW9uPSIxLjEiIGlkPSJMYXllcl8xIiB4bWxucz0iaHR0cDovL3d3dy53My5vcmcvMjAwMC9zdmciIHhtbG5zOnhsaW5rPSJodHRwOi8vd3d3LnczLm9yZy8xOTk5L3hsaW5rIiB4PSIwcHgiIHk9IjBweCIgdmlld0JveD0iMCAwIDUxMiA1MTIiIHN0eWxlPSJlbmFibGUtYmFja2dyb3VuZDpuZXcgMCAwIDUxMiA1MTI7IiB4bWw6c3BhY2U9InByZXNlcnZlIj4mI3hhOzxnPiYjeGE7CTxnPiYjeGE7CQk8cGF0aCBkPSJNMjU2LDBjLTg0Ljk4NCwwLTE1NC4xMjIsNjkuMTQtMTU0LjEyMiwxNTQuMTIydjI1MC43NzZDMTAxLjg3OCw0NjMuOTU1LDE0OS45MjMsNTEyLDIwOC45OCw1MTJoOTQuMDQxJiN4QTsmIzk7JiM5OyYjOTtjNTkuMDU3LDAsMTA3LjEwMi00OC4wNDUsMTA3LjEwMi0xMDcuMTAyVjE1NC4xMjJDNDEwLjEyMiw2OS4xNCwzNDAuOTg0LDAsMjU2LDB6IE0yNzQuMjg2LDc3LjA2MXYyMC44OTgmI3hBOyYjOTsmIzk7JiM5O2MwLDEwLjA4Mi04LjIwMywxOC4yODYtMTguMjg2LDE4LjI4NnMtMTguMjg2LTguMjAzLTE4LjI4Ni0xOC4yODZWNzcuMDYxYzAtMTAuMDgyLDguMjAzLTE4LjI4NiwxOC4yODYtMTguMjg2JiN4QTsmIzk7JiM5OyYjOTtTMjc0LjI4Niw2Ni45NzksMjc0LjI4Niw3Ny4wNjF6IE0yNzQuMjg2LDEyNi41NTN2MjMuNjUxYzAsMTAuMDgyLTguMjAzLDE4LjI4Ni0xOC4yODYsMTguMjg2cy0xOC4yODYtOC4yMDMtMTguMjg2LTE4LjI4NiYjeEE7JiM5OyYjOTsmIzk7di0yMy42NTFjNS4yODMsMy4zOTEsMTEuNTU2LDUuMzY2LDE4LjI4Niw1LjM2NlMyNjkuMDAzLDEyOS45NDIsMjc0LjI4NiwxMjYuNTUzeiBNMTE3LjU1MSwxNTQuMTIyJiN4QTsmIzk7JiM5OyYjOTtjMC03My43MSw1Ny45MDQtMTM0LjE0NSwxMzAuNjEyLTEzOC4yMjJ2MjguMTI2Yy0xNC45NTgsMy41NDgtMjYuMTIyLDE3LjAwOS0yNi4xMjIsMzMuMDM2djczLjE0MyYjeEE7JiM5OyYjOTsmIzk7YzAsMTYuMDI4LDExLjE2NSwyOS40ODgsMjYuMTIyLDMzLjAzN3YyOC4zNUgxMTcuNTUxVjE1NC4xMjJ6IE0zOTQuNDQ5LDQwNC44OThjMCw1MC40MTQtNDEuMDE0LDkxLjQyOS05MS40MjksOTEuNDI5SDIwOC45OCYjeEE7JiM5OyYjOTsmIzk7Yy01MC40MTQsMC05MS40MjktNDEuMDE0LTkxLjQyOS05MS40MjlWMjI3LjI2NWgyNzYuODk4VjQwNC44OTh6IE0zOTQuNDQ5LDIxMS41OTJIMjYzLjgzN3YtMjguMzUxJiN4QTsmIzk7JiM5OyYjOTtjMTQuOTU4LTMuNTQ5LDI2LjEyMi0xNy4wMDksMjYuMTIyLTMzLjAzN1Y3Ny4wNjFjMC0xNi4wMjgtMTEuMTY1LTI5LjQ4OC0yNi4xMjItMzMuMDM2VjE1LjkmI3hBOyYjOTsmIzk7JiM5O2M3Mi43MDgsNC4wNzcsMTMwLjYxMiw2NC41MTIsMTMwLjYxMiwxMzguMjIyVjIxMS41OTJ6Ii8+JiN4YTsJPC9nPiYjeGE7PC9nPiYjeGE7PGc+JiN4YTs8L2c+JiN4YTs8Zz4mI3hhOzwvZz4mI3hhOzxnPiYjeGE7PC9nPiYjeGE7PGc+JiN4YTs8L2c+JiN4YTs8Zz4mI3hhOzwvZz4mI3hhOzxnPiYjeGE7PC9nPiYjeGE7PGc+JiN4YTs8L2c+JiN4YTs8Zz4mI3hhOzwvZz4mI3hhOzxnPiYjeGE7PC9nPiYjeGE7PGc+JiN4YTs8L2c+JiN4YTs8Zz4mI3hhOzwvZz4mI3hhOzxnPiYjeGE7PC9nPiYjeGE7PGc+JiN4YTs8L2c+JiN4YTs8Zz4mI3hhOzwvZz4mI3hhOzxnPiYjeGE7PC9nPiYjeGE7PC9zdmc+;strokeWidth=6;" parent="1" vertex="1">
          <mxGeometry x="574" y="302" width="40" height="40" as="geometry" />
        </mxCell>
        <mxCell id="8sTvoNBSmKstpfrEg4xR-6" value="" style="shape=image;verticalLabelPosition=bottom;labelBackgroundColor=default;verticalAlign=top;aspect=fixed;imageAspect=0;image=data:image/svg+xml,PHN2ZyB2ZXJzaW9uPSIxLjEiIGlkPSJDYXBhXzEiIHhtbG5zPSJodHRwOi8vd3d3LnczLm9yZy8yMDAwL3N2ZyIgeG1sbnM6eGxpbms9Imh0dHA6Ly93d3cudzMub3JnLzE5OTkveGxpbmsiIHg9IjBweCIgeT0iMHB4IiB2aWV3Qm94PSIwIDAgNDkwIDQ5MCIgc3R5bGU9ImVuYWJsZS1iYWNrZ3JvdW5kOm5ldyAwIDAgNDkwIDQ5MDsiIHhtbDpzcGFjZT0icHJlc2VydmUiPiYjeGE7PGc+JiN4YTsJPHBhdGggZD0iTTQxNy40MTgsMTM2LjE1NWw0MS4wMjQtNDEuMjRsLTQzLjExNi00Mi44OTZMMzczLjY1Miw5My45MmMtMjAuMjI0LTE0LjczMi00My4wNTEtMjYuMDkxLTY3LjY1Ny0zMy4yMzhWMzIuODM4JiN4QTsmIzk7JiM5O0MzMDUuOTk1LDE0LjczMywyOTEuMjYyLDAsMjczLjE0OCwwaC01Ni4zMDZjLTE4LjEwNCwwLTMyLjgzOCwxNC43MzMtMzIuODM4LDMyLjgzOFY2MC42OCYjeEE7JiM5OyYjOTtDOTIuODQyLDg3LjE1OCwyNi4wMTQsMTcxLjQyMiwyNi4wMTQsMjcxLjAwOUMyNi4wMTQsMzkxLjc2NCwxMjQuMjQ5LDQ5MCwyNDQuOTk0LDQ5MGMxMjAuNzU1LDAsMjE4Ljk5MS05OC4yMzYsMjE4Ljk5MS0yMTguOTkxJiN4QTsmIzk7JiM5O0M0NjMuOTg2LDIyMC4xODYsNDQ2LjU3OSwxNzMuMzU1LDQxNy40MTgsMTM2LjE1NXogTTQ0My4zMSwyODEuMjE3Yy0yLjM5Niw0Ny4wNzMtMjEuMjY3LDg5Ljg2OC01MC45NCwxMjIuNzMxbC0xNi44MzktMTYuODM5JiN4QTsmIzk7JiM5O2wtMTQuNDM2LDE0LjQzNWwxNi44MzksMTYuODRjLTMyLjg2MywyOS42NzQtNzUuNjU5LDQ4LjU0NS0xMjIuNzMxLDUwLjk0di0yMy45MTZoLTIwLjQxN3YyMy45MTYmI3hBOyYjOTsmIzk7Yy00Ny4wNzEtMi4zOTUtODkuODYzLTIxLjI2Ni0xMjIuNzIzLTUwLjkzOGwxNi44NDItMTYuODQybC0xNC40MzUtMTQuNDM1bC0xNi44NDIsMTYuODQyJiN4QTsmIzk7JiM5O2MtMjkuNjcyLTMyLjg2NC00OC41NDItNzUuNjYtNTAuOTM4LTEyMi43MzRoMjMuOTE1di0yMC40MTZINDYuNjljMi4zOTUtNDcuMDczLDIxLjI2NS04OS44NjcsNTAuOTM2LTEyMi43MjhsMTYuODQzLDE2LjgzNiYjeEE7JiM5OyYjOTtsMTQuNDM1LTE0LjQzNmwtMTYuODQ0LTE2LjgzNWMzMi44NjEtMjkuNjcsNzUuNjUzLTQ4LjUzOSwxMjIuNzI1LTUwLjkzNVY5Ni42MmgyMC40MTdWNzIuNzA0JiN4QTsmIzk7JiM5O2M0Ny4wNzMsMi4zOTYsODkuODY5LDIxLjI2NSwxMjIuNzMyLDUwLjkzN2wtMTYuODQxLDE2LjgzM2wxNC40MzYsMTQuNDM2bDE2Ljg0MS0xNi44MzQmI3hBOyYjOTsmIzk7YzI5LjY3MywzMi44NjEsNDguNTQzLDc1LjY1Myw1MC45MzksMTIyLjcyNmgtMjMuOTE2djIwLjQxNkg0NDMuMzF6IE00MTUuNDA2LDgwLjg4OWwxNC4xNjYsMTQuMTA2bC0yNS41MjMsMjUuNjUzJiN4QTsmIzk7JiM5O2MtNC41OC00Ljg0Mi05LjM4Mi05LjQ3MS0xNC4zODMtMTMuODgxTDQxNS40MDYsODAuODg5eiBNMjA0LjQyMSwzMi44MzhjMC02Ljg0OSw1LjU3My0xMi40MjEsMTIuNDIxLTEyLjQyMWg1Ni4zMDYmI3hBOyYjOTsmIzk7YzYuODU4LDAsMTIuNDMxLDUuNTczLDEyLjQzMSwxMi40MjF2MjIuOTc1Yy0xMy4xNTctMi40NzUtMjYuNzE5LTMuNzg1LTQwLjU4NC0zLjc4NWMtMTMuODYxLDAtMjcuNDIxLDEuMzEtNDAuNTc0LDMuNzg0VjMyLjgzOHoiLz4mI3hhOwk8cGF0aCBkPSJNMzMwLjk5OCwxMDguNDQzbDE3LjQ4NiwxMC41MjdsLTk0Ljc0NSwxNTcuMzAybC0xNy40ODYtMTAuNTI3TDMzMC45OTgsMTA4LjQ0M3oiLz4mI3hhOzwvZz4mI3hhOzxnPiYjeGE7PC9nPiYjeGE7PGc+JiN4YTs8L2c+JiN4YTs8Zz4mI3hhOzwvZz4mI3hhOzxnPiYjeGE7PC9nPiYjeGE7PGc+JiN4YTs8L2c+JiN4YTs8Zz4mI3hhOzwvZz4mI3hhOzxnPiYjeGE7PC9nPiYjeGE7PGc+JiN4YTs8L2c+JiN4YTs8Zz4mI3hhOzwvZz4mI3hhOzxnPiYjeGE7PC9nPiYjeGE7PGc+JiN4YTs8L2c+JiN4YTs8Zz4mI3hhOzwvZz4mI3hhOzxnPiYjeGE7PC9nPiYjeGE7PGc+JiN4YTs8L2c+JiN4YTs8Zz4mI3hhOzwvZz4mI3hhOzwvc3ZnPg==;" parent="1" vertex="1">
          <mxGeometry x="499.5" y="301" width="39" height="39" as="geometry" />
        </mxCell>
        <mxCell id="8sTvoNBSmKstpfrEg4xR-25" style="edgeStyle=orthogonalEdgeStyle;rounded=0;sketch=0;orthogonalLoop=1;jettySize=auto;html=1;exitX=1;exitY=0.5;exitDx=0;exitDy=0;shadow=0;dashed=1;entryX=0;entryY=0.5;entryDx=0;entryDy=0;" parent="1" source="8sTvoNBSmKstpfrEg4xR-16" target="apoN05toFRVQ8jzYR4Kh-1" edge="1">
          <mxGeometry relative="1" as="geometry">
            <mxPoint x="188" y="195" as="targetPoint" />
            <Array as="points" />
          </mxGeometry>
        </mxCell>
        <mxCell id="8sTvoNBSmKstpfrEg4xR-26" style="edgeStyle=orthogonalEdgeStyle;rounded=0;sketch=0;orthogonalLoop=1;jettySize=auto;html=1;exitX=0;exitY=0.5;exitDx=0;exitDy=0;shadow=0;dashed=1;endArrow=none;endFill=0;entryX=0.5;entryY=0;entryDx=0;entryDy=0;" parent="1" source="8sTvoNBSmKstpfrEg4xR-16" target="uYs5GYbTjYF1iJf1gCNO-9" edge="1">
          <mxGeometry relative="1" as="geometry">
            <mxPoint x="123" y="195.06666666666666" as="targetPoint" />
            <Array as="points">
              <mxPoint x="126" y="195" />
              <mxPoint x="126" y="162" />
              <mxPoint x="104" y="162" />
            </Array>
          </mxGeometry>
        </mxCell>
        <mxCell id="8sTvoNBSmKstpfrEg4xR-16" value="" style="rounded=0;whiteSpace=wrap;html=1;fillColor=#FFE6CC;strokeColor=#000000;strokeWidth=2;rotation=0;" parent="1" vertex="1">
          <mxGeometry x="134" y="191.58" width="34" height="6.84" as="geometry" />
        </mxCell>
        <mxCell id="_U3s51kMK6_Sq0Nan9so-37" value="" style="rounded=0;whiteSpace=wrap;html=1;fillColor=#FFE6CC;strokeColor=#000000;strokeWidth=2;rotation=0;" parent="1" vertex="1">
          <mxGeometry x="156" y="250" width="34" height="6.84" as="geometry" />
        </mxCell>
        <mxCell id="8sTvoNBSmKstpfrEg4xR-19" value="" style="endArrow=none;html=1;rounded=0;entryX=0;entryY=0.5;entryDx=0;entryDy=0;edgeStyle=orthogonalEdgeStyle;endFill=0;startArrow=classic;startFill=1;dashed=1;exitX=0.5;exitY=0;exitDx=0;exitDy=0;" parent="1" source="t0CYV38w4iB7tC78BSTa-1" target="_U3s51kMK6_Sq0Nan9so-37" edge="1">
          <mxGeometry width="50" height="50" relative="1" as="geometry">
            <mxPoint x="114" y="287" as="sourcePoint" />
            <mxPoint x="228.4999999999999" y="220" as="targetPoint" />
          </mxGeometry>
        </mxCell>
        <mxCell id="8sTvoNBSmKstpfrEg4xR-43" style="edgeStyle=orthogonalEdgeStyle;rounded=0;sketch=0;orthogonalLoop=1;jettySize=auto;html=1;exitX=1;exitY=0.5;exitDx=0;exitDy=0;shadow=0;dashed=1;endArrow=none;endFill=0;" parent="1" source="_U3s51kMK6_Sq0Nan9so-15" edge="1">
          <mxGeometry relative="1" as="geometry">
            <mxPoint x="519" y="231" as="targetPoint" />
          </mxGeometry>
        </mxCell>
        <mxCell id="8sTvoNBSmKstpfrEg4xR-44" style="edgeStyle=orthogonalEdgeStyle;rounded=0;sketch=0;orthogonalLoop=1;jettySize=auto;html=1;exitX=0;exitY=0.5;exitDx=0;exitDy=0;entryX=0.5;entryY=0;entryDx=0;entryDy=0;shadow=0;dashed=1;endArrow=classic;endFill=1;startArrow=none;startFill=0;" parent="1" source="_U3s51kMK6_Sq0Nan9so-15" edge="1">
          <mxGeometry relative="1" as="geometry">
            <mxPoint x="442" y="250" as="targetPoint" />
          </mxGeometry>
        </mxCell>
        <mxCell id="_U3s51kMK6_Sq0Nan9so-15" value="" style="rounded=0;whiteSpace=wrap;html=1;fillColor=#FFE6CC;strokeColor=#000000;strokeWidth=2;rotation=0;" parent="1" vertex="1">
          <mxGeometry x="454" y="227" width="30" height="6.85" as="geometry" />
        </mxCell>
        <mxCell id="t0CYV38w4iB7tC78BSTa-2" value="" style="group;" parent="1" vertex="1" connectable="0">
          <mxGeometry x="84" y="298" width="93" height="53" as="geometry" />
        </mxCell>
        <mxCell id="KgP6CTTXGQg9yauss7m2-1" value="example.com" style="swimlane;fontStyle=1;childLayout=stackLayout;horizontal=1;startSize=20;horizontalStack=0;resizeParent=1;resizeParentMax=0;resizeLast=0;collapsible=1;marginBottom=0;strokeWidth=1;fillColor=#eeeeee;strokeColor=#36393d;align=center;" parent="t0CYV38w4iB7tC78BSTa-2" vertex="1">
          <mxGeometry x="1" y="14" width="91" height="38" as="geometry" />
        </mxCell>
        <mxCell id="KgP6CTTXGQg9yauss7m2-2" value="FrameId: 1" style="text;strokeColor=none;fillColor=none;align=center;verticalAlign=middle;spacingLeft=4;spacingRight=4;overflow=hidden;points=[[0,0.5],[1,0.5]];portConstraint=eastwest;rotatable=0;strokeWidth=2;" parent="KgP6CTTXGQg9yauss7m2-1" vertex="1">
          <mxGeometry y="20" width="91" height="18" as="geometry" />
        </mxCell>
        <mxCell id="t0CYV38w4iB7tC78BSTa-1" value="ReplayFrame" style="swimlane;fillColor=#dae8fc;strokeColor=#6c8ebf;startSize=13;" parent="t0CYV38w4iB7tC78BSTa-2" vertex="1">
          <mxGeometry width="93" height="53" as="geometry" />
        </mxCell>
        <mxCell id="t0CYV38w4iB7tC78BSTa-3" value="" style="group;strokeWidth=2;" parent="1" vertex="1" connectable="0">
          <mxGeometry x="183" y="299" width="93" height="53" as="geometry" />
        </mxCell>
        <mxCell id="t0CYV38w4iB7tC78BSTa-4" value="bar.com" style="swimlane;fontStyle=1;childLayout=stackLayout;horizontal=1;startSize=20;horizontalStack=0;resizeParent=1;resizeParentMax=0;resizeLast=0;collapsible=1;marginBottom=0;strokeWidth=1;fillColor=#eeeeee;strokeColor=#36393d;align=center;" parent="t0CYV38w4iB7tC78BSTa-3" vertex="1">
          <mxGeometry x="1" y="14" width="91" height="38" as="geometry" />
        </mxCell>
        <mxCell id="t0CYV38w4iB7tC78BSTa-5" value="FrameId: 2" style="text;strokeColor=none;fillColor=none;align=center;verticalAlign=middle;spacingLeft=4;spacingRight=4;overflow=hidden;points=[[0,0.5],[1,0.5]];portConstraint=eastwest;rotatable=0;strokeWidth=2;" parent="t0CYV38w4iB7tC78BSTa-4" vertex="1">
          <mxGeometry y="20" width="91" height="18" as="geometry" />
        </mxCell>
        <mxCell id="t0CYV38w4iB7tC78BSTa-6" value="ReplayFrame" style="swimlane;fillColor=#dae8fc;strokeColor=#6c8ebf;startSize=13;" parent="t0CYV38w4iB7tC78BSTa-3" vertex="1">
          <mxGeometry width="93" height="53" as="geometry" />
        </mxCell>
        <mxCell id="t0CYV38w4iB7tC78BSTa-13" value="" style="group;strokeWidth=2;" parent="1" vertex="1" connectable="0">
          <mxGeometry x="283" y="299" width="93" height="53" as="geometry" />
        </mxCell>
        <mxCell id="t0CYV38w4iB7tC78BSTa-14" value="foo.com" style="swimlane;fontStyle=1;childLayout=stackLayout;horizontal=1;startSize=20;horizontalStack=0;resizeParent=1;resizeParentMax=0;resizeLast=0;collapsible=1;marginBottom=0;strokeWidth=1;fillColor=#eeeeee;strokeColor=#36393d;align=center;" parent="t0CYV38w4iB7tC78BSTa-13" vertex="1">
          <mxGeometry x="1" y="14" width="91" height="38" as="geometry" />
        </mxCell>
        <mxCell id="t0CYV38w4iB7tC78BSTa-15" value="FrameId: 3" style="text;strokeColor=none;fillColor=none;align=center;verticalAlign=middle;spacingLeft=4;spacingRight=4;overflow=hidden;points=[[0,0.5],[1,0.5]];portConstraint=eastwest;rotatable=0;strokeWidth=2;" parent="t0CYV38w4iB7tC78BSTa-14" vertex="1">
          <mxGeometry y="20" width="91" height="18" as="geometry" />
        </mxCell>
        <mxCell id="t0CYV38w4iB7tC78BSTa-16" value="ReplayFrame" style="swimlane;fillColor=#dae8fc;strokeColor=#6c8ebf;startSize=13;" parent="t0CYV38w4iB7tC78BSTa-13" vertex="1">
          <mxGeometry width="93" height="53" as="geometry" />
        </mxCell>
        <mxCell id="t0CYV38w4iB7tC78BSTa-17" value="" style="group" parent="1" vertex="1" connectable="0">
          <mxGeometry x="472.5" y="165" width="93" height="53" as="geometry" />
        </mxCell>
        <mxCell id="t0CYV38w4iB7tC78BSTa-18" value="example.com" style="swimlane;fontStyle=1;childLayout=stackLayout;horizontal=1;startSize=20;horizontalStack=0;resizeParent=1;resizeParentMax=0;resizeLast=0;collapsible=1;marginBottom=0;strokeWidth=1;fillColor=#eeeeee;strokeColor=#36393d;align=center;" parent="t0CYV38w4iB7tC78BSTa-17" vertex="1">
          <mxGeometry x="1" y="14" width="91" height="38" as="geometry" />
        </mxCell>
        <mxCell id="t0CYV38w4iB7tC78BSTa-19" value="FrameId: 1" style="text;strokeColor=none;fillColor=none;align=center;verticalAlign=middle;spacingLeft=4;spacingRight=4;overflow=hidden;points=[[0,0.5],[1,0.5]];portConstraint=eastwest;rotatable=0;strokeWidth=1;" parent="t0CYV38w4iB7tC78BSTa-18" vertex="1">
          <mxGeometry y="20" width="91" height="18" as="geometry" />
        </mxCell>
        <mxCell id="t0CYV38w4iB7tC78BSTa-20" value="ReplayFrame" style="swimlane;fillColor=#dae8fc;strokeColor=#6c8ebf;startSize=13;" parent="t0CYV38w4iB7tC78BSTa-17" vertex="1">
          <mxGeometry width="93" height="53" as="geometry" />
        </mxCell>
      </root>
    </mxGraphModel>
  </diagram>
  <diagram name="event-replayer" id="hRcNtLwysA8tNMk4u1eh">
    <mxGraphModel dx="2062" dy="1057" grid="1" gridSize="1" guides="1" tooltips="1" connect="1" arrows="1" fold="1" page="1" pageScale="1" pageWidth="850" pageHeight="1100" math="0" shadow="1">
      <root>
        <mxCell id="0" />
        <mxCell id="1" parent="0" />
        <mxCell id="qlaROdWnIywOkl4LA603-1" value="mouseClick" style="swimlane;fontStyle=1;childLayout=stackLayout;horizontal=1;startSize=30;horizontalStack=0;resizeParent=1;resizeParentMax=0;resizeLast=0;collapsible=1;marginBottom=0;strokeColor=#36393d;strokeWidth=2;fillColor=#F8CECC;" parent="1" vertex="1">
          <mxGeometry x="59" y="290" width="140" height="102" as="geometry" />
        </mxCell>
        <mxCell id="qlaROdWnIywOkl4LA603-2" value="eventType: &#39;mouseEvent&#39;" style="text;strokeColor=none;fillColor=none;align=left;verticalAlign=middle;spacingLeft=4;spacingRight=4;overflow=hidden;points=[[0,0.5],[1,0.5]];portConstraint=eastwest;rotatable=0;" parent="qlaROdWnIywOkl4LA603-1" vertex="1">
          <mxGeometry y="30" width="140" height="18" as="geometry" />
        </mxCell>
        <mxCell id="qlaROdWnIywOkl4LA603-3" value="Attrs: {&#39;x&#39; : 125, &#39;y&#39; : 90}&#xa;" style="text;strokeColor=none;fillColor=none;align=left;verticalAlign=middle;spacingLeft=4;spacingRight=4;overflow=hidden;points=[[0,0.5],[1,0.5]];portConstraint=eastwest;rotatable=0;" parent="qlaROdWnIywOkl4LA603-1" vertex="1">
          <mxGeometry y="48" width="140" height="18" as="geometry" />
        </mxCell>
        <mxCell id="qlaROdWnIywOkl4LA603-4" value="FrameId: 1, TargetId: 25" style="text;strokeColor=none;fillColor=none;align=left;verticalAlign=middle;spacingLeft=4;spacingRight=4;overflow=hidden;points=[[0,0.5],[1,0.5]];portConstraint=eastwest;rotatable=0;" parent="qlaROdWnIywOkl4LA603-1" vertex="1">
          <mxGeometry y="66" width="140" height="18" as="geometry" />
        </mxCell>
        <mxCell id="qlaROdWnIywOkl4LA603-5" value="Sequence ID: 3" style="text;strokeColor=none;fillColor=none;align=left;verticalAlign=middle;spacingLeft=4;spacingRight=4;overflow=hidden;points=[[0,0.5],[1,0.5]];portConstraint=eastwest;rotatable=0;" parent="qlaROdWnIywOkl4LA603-1" vertex="1">
          <mxGeometry y="84" width="140" height="18" as="geometry" />
        </mxCell>
        <mxCell id="qlaROdWnIywOkl4LA603-6" value="" style="endArrow=classic;html=1;exitX=1;exitY=0.5;exitDx=0;exitDy=0;curved=1;entryX=0;entryY=0.5;entryDx=0;entryDy=0;" parent="1" source="qlaROdWnIywOkl4LA603-3" target="qlaROdWnIywOkl4LA603-11" edge="1">
          <mxGeometry relative="1" as="geometry">
            <mxPoint x="168" y="346" as="sourcePoint" />
            <mxPoint x="263" y="307" as="targetPoint" />
            <Array as="points">
              <mxPoint x="204" y="275" />
            </Array>
          </mxGeometry>
        </mxCell>
        <mxCell id="qlaROdWnIywOkl4LA603-7" value="Reconstruct&lt;br&gt;&lt;div&gt;Initializer&lt;/div&gt;&lt;div&gt;Object&lt;/div&gt;" style="edgeLabel;resizable=0;html=1;align=center;verticalAlign=middle;" parent="qlaROdWnIywOkl4LA603-6" connectable="0" vertex="1">
          <mxGeometry relative="1" as="geometry">
            <mxPoint x="9" y="-22" as="offset" />
          </mxGeometry>
        </mxCell>
        <mxCell id="qlaROdWnIywOkl4LA603-25" value="" style="group" parent="1" vertex="1" connectable="0">
          <mxGeometry x="277" y="240" width="197" height="166" as="geometry" />
        </mxCell>
        <mxCell id="qlaROdWnIywOkl4LA603-10" value="Create MouseEventInit" style="swimlane;fontStyle=0;childLayout=stackLayout;horizontal=1;startSize=20;horizontalStack=0;resizeParent=1;resizeParentMax=0;resizeLast=0;collapsible=1;marginBottom=0;fillColor=#f5f5f5;fontColor=#333333;strokeColor=#666666;" parent="qlaROdWnIywOkl4LA603-25" vertex="1">
          <mxGeometry width="196" height="95" as="geometry" />
        </mxCell>
        <mxCell id="qlaROdWnIywOkl4LA603-11" value="init = MouseEventInit::Create();" style="text;strokeColor=none;fillColor=none;align=left;verticalAlign=middle;spacingLeft=4;spacingRight=4;overflow=hidden;points=[[0,0.5],[1,0.5]];portConstraint=eastwest;rotatable=0;" parent="qlaROdWnIywOkl4LA603-10" vertex="1">
          <mxGeometry y="20" width="196" height="15" as="geometry" />
        </mxCell>
        <mxCell id="qlaROdWnIywOkl4LA603-12" value="init.setX(&#39;125&#39;);" style="text;strokeColor=none;fillColor=none;align=left;verticalAlign=middle;spacingLeft=4;spacingRight=4;overflow=hidden;points=[[0,0.5],[1,0.5]];portConstraint=eastwest;rotatable=0;" parent="qlaROdWnIywOkl4LA603-10" vertex="1">
          <mxGeometry y="35" width="196" height="15" as="geometry" />
        </mxCell>
        <mxCell id="qlaROdWnIywOkl4LA603-13" value="init.setY(&#39;90&#39;)" style="text;strokeColor=none;fillColor=none;align=left;verticalAlign=middle;spacingLeft=4;spacingRight=4;overflow=hidden;points=[[0,0.5],[1,0.5]];portConstraint=eastwest;rotatable=0;" parent="qlaROdWnIywOkl4LA603-10" vertex="1">
          <mxGeometry y="50" width="196" height="15" as="geometry" />
        </mxCell>
        <mxCell id="qlaROdWnIywOkl4LA603-14" value="init.setBubbles(True);" style="text;strokeColor=none;fillColor=none;align=left;verticalAlign=middle;spacingLeft=4;spacingRight=4;overflow=hidden;points=[[0,0.5],[1,0.5]];portConstraint=eastwest;rotatable=0;" parent="qlaROdWnIywOkl4LA603-10" vertex="1">
          <mxGeometry y="65" width="196" height="15" as="geometry" />
        </mxCell>
        <mxCell id="qlaROdWnIywOkl4LA603-16" value="return init;" style="text;strokeColor=none;fillColor=none;align=left;verticalAlign=middle;spacingLeft=4;spacingRight=4;overflow=hidden;points=[[0,0.5],[1,0.5]];portConstraint=eastwest;rotatable=0;fontStyle=1" parent="qlaROdWnIywOkl4LA603-10" vertex="1">
          <mxGeometry y="80" width="196" height="15" as="geometry" />
        </mxCell>
        <mxCell id="qlaROdWnIywOkl4LA603-17" value="Create MouseEvent" style="swimlane;fontStyle=0;childLayout=stackLayout;horizontal=1;startSize=21;horizontalStack=0;resizeParent=1;resizeParentMax=0;resizeLast=0;collapsible=1;marginBottom=0;fillColor=#f5f5f5;fontColor=#333333;strokeColor=#666666;" parent="qlaROdWnIywOkl4LA603-25" vertex="1">
          <mxGeometry x="1" y="106" width="196" height="51" as="geometry" />
        </mxCell>
        <mxCell id="qlaROdWnIywOkl4LA603-18" value="event = new MouseEvent(init);" style="text;strokeColor=none;fillColor=none;align=left;verticalAlign=middle;spacingLeft=4;spacingRight=4;overflow=hidden;points=[[0,0.5],[1,0.5]];portConstraint=eastwest;rotatable=0;" parent="qlaROdWnIywOkl4LA603-17" vertex="1">
          <mxGeometry y="21" width="196" height="15" as="geometry" />
        </mxCell>
        <mxCell id="qlaROdWnIywOkl4LA603-24" value="return event;" style="text;strokeColor=none;fillColor=none;align=left;verticalAlign=middle;spacingLeft=4;spacingRight=4;overflow=hidden;points=[[0,0.5],[1,0.5]];portConstraint=eastwest;rotatable=0;fontStyle=1" parent="qlaROdWnIywOkl4LA603-17" vertex="1">
          <mxGeometry y="36" width="196" height="15" as="geometry" />
        </mxCell>
        <mxCell id="qlaROdWnIywOkl4LA603-23" style="edgeStyle=orthogonalEdgeStyle;curved=1;orthogonalLoop=1;jettySize=auto;html=1;entryX=0;entryY=0.5;entryDx=0;entryDy=0;exitX=0;exitY=0.5;exitDx=0;exitDy=0;" parent="qlaROdWnIywOkl4LA603-25" source="qlaROdWnIywOkl4LA603-16" target="qlaROdWnIywOkl4LA603-18" edge="1">
          <mxGeometry relative="1" as="geometry" />
        </mxCell>
        <mxCell id="qlaROdWnIywOkl4LA603-26" value="Create&lt;br&gt;Event" style="edgeLabel;resizable=0;html=1;align=center;verticalAlign=middle;" parent="1" connectable="0" vertex="1">
          <mxGeometry x="237.00104127643476" y="238.00258218343663" as="geometry">
            <mxPoint x="-3" y="123" as="offset" />
          </mxGeometry>
        </mxCell>
        <mxCell id="qlaROdWnIywOkl4LA603-34" value="Dispatch&lt;br&gt;Event" style="text;html=1;strokeColor=none;fillColor=none;align=center;verticalAlign=middle;whiteSpace=wrap;rounded=0;fontColor=#000000;" parent="1" vertex="1">
          <mxGeometry x="477" y="255" width="60" height="30" as="geometry" />
        </mxCell>
        <mxCell id="qlaROdWnIywOkl4LA603-45" value="" style="group" parent="1" vertex="1" connectable="0">
          <mxGeometry x="537" y="230" width="193" height="190" as="geometry" />
        </mxCell>
        <mxCell id="qlaROdWnIywOkl4LA603-47" style="edgeStyle=orthogonalEdgeStyle;curved=1;orthogonalLoop=1;jettySize=auto;html=1;exitX=0.5;exitY=1;exitDx=0;exitDy=0;entryX=0.5;entryY=0;entryDx=0;entryDy=0;fontColor=#000000;" parent="qlaROdWnIywOkl4LA603-45" source="qlaROdWnIywOkl4LA603-27" target="qlaROdWnIywOkl4LA603-42" edge="1">
          <mxGeometry relative="1" as="geometry" />
        </mxCell>
        <mxCell id="qlaROdWnIywOkl4LA603-27" value="Submit" style="rounded=1;fillColor=#FFFFFF;align=center;strokeColor=#999999;html=1;fontColor=#000000;fontSize=12;sketch=0;strokeWidth=2;" parent="qlaROdWnIywOkl4LA603-45" vertex="1">
          <mxGeometry x="32" y="19" width="80" height="25" as="geometry" />
        </mxCell>
        <mxCell id="qlaROdWnIywOkl4LA603-32" value="&lt;b&gt;EventTarget&lt;/b&gt;" style="text;html=1;align=center;verticalAlign=middle;resizable=0;points=[];autosize=1;strokeColor=none;fillColor=none;fontColor=#000000;" parent="qlaROdWnIywOkl4LA603-45" vertex="1">
          <mxGeometry x="30" width="79" height="19" as="geometry" />
        </mxCell>
        <mxCell id="qlaROdWnIywOkl4LA603-42" value="JavaScript Engine V8" style="swimlane;fontColor=#333333;strokeColor=#666666;strokeWidth=1;fillColor=#f5f5f5;" parent="qlaROdWnIywOkl4LA603-45" vertex="1">
          <mxGeometry y="86" width="145" height="94" as="geometry" />
        </mxCell>
        <mxCell id="qlaROdWnIywOkl4LA603-41" value="" style="sketch=0;outlineConnect=0;fontColor=#232F3E;gradientColor=none;fillColor=#232F3D;strokeColor=none;dashed=0;verticalLabelPosition=bottom;verticalAlign=top;align=center;html=1;fontSize=12;fontStyle=0;aspect=fixed;pointerEvents=1;shape=mxgraph.aws4.gear;" parent="qlaROdWnIywOkl4LA603-42" vertex="1">
          <mxGeometry x="45" y="34" width="53" height="53" as="geometry" />
        </mxCell>
        <mxCell id="qlaROdWnIywOkl4LA603-44" value="&lt;div&gt;Invoke &lt;br&gt;&lt;/div&gt;&lt;div&gt;Event Handlers&lt;br&gt;&lt;/div&gt;" style="text;html=1;strokeColor=none;fillColor=none;align=center;verticalAlign=middle;whiteSpace=wrap;rounded=0;fontColor=#000000;" parent="qlaROdWnIywOkl4LA603-45" vertex="1">
          <mxGeometry x="64" y="50" width="115" height="30" as="geometry" />
        </mxCell>
        <mxCell id="qlaROdWnIywOkl4LA603-48" style="edgeStyle=orthogonalEdgeStyle;curved=1;orthogonalLoop=1;jettySize=auto;html=1;exitX=1;exitY=0.5;exitDx=0;exitDy=0;entryX=0;entryY=0.5;entryDx=0;entryDy=0;fontColor=#000000;" parent="1" source="qlaROdWnIywOkl4LA603-24" target="qlaROdWnIywOkl4LA603-27" edge="1">
          <mxGeometry relative="1" as="geometry" />
        </mxCell>
      </root>
    </mxGraphModel>
  </diagram>
  <diagram id="7Btb50Isi-IVB7xw3lDC" name="sw-replayer">
    <mxGraphModel dx="1178" dy="604" grid="1" gridSize="1" guides="1" tooltips="1" connect="1" arrows="1" fold="1" page="1" pageScale="1" pageWidth="850" pageHeight="1100" math="0" shadow="0">
      <root>
        <mxCell id="0" />
        <mxCell id="1" parent="0" />
        <mxCell id="EqJl53j0fZwEslWqSYaT-4" style="edgeStyle=orthogonalEdgeStyle;rounded=0;orthogonalLoop=1;jettySize=auto;html=1;exitX=0;exitY=0.5;exitDx=0;exitDy=0;entryX=1;entryY=0.5;entryDx=0;entryDy=0;dashed=1;fontSize=9;endArrow=none;endFill=0;" parent="1" source="DYeIu-XaYAEz3ui3MFc--7" target="DYeIu-XaYAEz3ui3MFc--28" edge="1">
          <mxGeometry relative="1" as="geometry">
            <Array as="points">
              <mxPoint x="267" y="133" />
              <mxPoint x="267" y="153" />
            </Array>
          </mxGeometry>
        </mxCell>
        <mxCell id="EqJl53j0fZwEslWqSYaT-21" style="edgeStyle=orthogonalEdgeStyle;rounded=0;orthogonalLoop=1;jettySize=auto;html=1;exitX=1;exitY=0.5;exitDx=0;exitDy=0;dashed=1;fontSize=9;startArrow=none;startFill=0;endArrow=classicThin;endFill=1;" parent="1" source="DYeIu-XaYAEz3ui3MFc--7" edge="1">
          <mxGeometry relative="1" as="geometry">
            <mxPoint x="389" y="133.4516129032258" as="targetPoint" />
          </mxGeometry>
        </mxCell>
        <mxCell id="DYeIu-XaYAEz3ui3MFc--7" value="&lt;div style=&quot;font-size: 9px&quot;&gt;&lt;font style=&quot;font-size: 9px&quot;&gt;JS&lt;/font&gt;&lt;/div&gt;&lt;div style=&quot;font-size: 9px&quot;&gt;&lt;font style=&quot;font-size: 9px&quot;&gt;Replayer&lt;/font&gt;&lt;br&gt;&lt;/div&gt;" style="rounded=0;whiteSpace=wrap;html=1;fontSize=8;strokeColor=#36393d;fillColor=#F8CECC;strokeWidth=2;" parent="1" vertex="1">
          <mxGeometry x="316" y="122" width="56" height="23" as="geometry" />
        </mxCell>
        <mxCell id="EqJl53j0fZwEslWqSYaT-5" style="edgeStyle=orthogonalEdgeStyle;rounded=0;orthogonalLoop=1;jettySize=auto;html=1;exitX=1;exitY=0.5;exitDx=0;exitDy=0;dashed=1;fontSize=6;endArrow=classic;endFill=1;" parent="1" source="DYeIu-XaYAEz3ui3MFc--4" edge="1">
          <mxGeometry relative="1" as="geometry">
            <mxPoint x="384" y="170" as="targetPoint" />
          </mxGeometry>
        </mxCell>
        <mxCell id="DYeIu-XaYAEz3ui3MFc--4" value="&lt;div style=&quot;font-size: 9px&quot;&gt;&lt;font style=&quot;font-size: 9px&quot;&gt;SW&lt;/font&gt;&lt;/div&gt;&lt;div style=&quot;font-size: 9px&quot;&gt;&lt;font style=&quot;font-size: 9px&quot;&gt;Replayer&lt;/font&gt;&lt;br&gt;&lt;/div&gt;" style="rounded=0;whiteSpace=wrap;html=1;fontSize=8;strokeColor=#36393d;fillColor=#FFE6CC;strokeWidth=2;" parent="1" vertex="1">
          <mxGeometry x="314" y="158.01" width="58" height="24" as="geometry" />
        </mxCell>
        <mxCell id="EqJl53j0fZwEslWqSYaT-3" style="edgeStyle=orthogonalEdgeStyle;rounded=0;orthogonalLoop=1;jettySize=auto;html=1;exitX=1;exitY=0.5;exitDx=0;exitDy=0;entryX=0;entryY=0.5;entryDx=0;entryDy=0;dashed=1;fontSize=9;endArrow=none;endFill=0;" parent="1" source="DYeIu-XaYAEz3ui3MFc--24" target="DYeIu-XaYAEz3ui3MFc--4" edge="1">
          <mxGeometry relative="1" as="geometry" />
        </mxCell>
        <mxCell id="DYeIu-XaYAEz3ui3MFc--21" value="" style="shape=image;verticalLabelPosition=bottom;labelBackgroundColor=default;verticalAlign=top;aspect=fixed;imageAspect=0;image=data:image/svg+xml,PHN2ZyB2ZXJzaW9uPSIxLjEiIGlkPSJDYXBhXzEiIHhtbG5zPSJodHRwOi8vd3d3LnczLm9yZy8yMDAwL3N2ZyIgeG1sbnM6eGxpbms9Imh0dHA6Ly93d3cudzMub3JnLzE5OTkveGxpbmsiIHg9IjBweCIgeT0iMHB4IiB2aWV3Qm94PSIwIDAgNDkwIDQ5MCIgc3R5bGU9ImVuYWJsZS1iYWNrZ3JvdW5kOm5ldyAwIDAgNDkwIDQ5MDsiIHhtbDpzcGFjZT0icHJlc2VydmUiPiYjeGE7PGc+JiN4YTsJPHBhdGggZD0iTTQxNy40MTgsMTM2LjE1NWw0MS4wMjQtNDEuMjRsLTQzLjExNi00Mi44OTZMMzczLjY1Miw5My45MmMtMjAuMjI0LTE0LjczMi00My4wNTEtMjYuMDkxLTY3LjY1Ny0zMy4yMzhWMzIuODM4JiN4QTsmIzk7JiM5O0MzMDUuOTk1LDE0LjczMywyOTEuMjYyLDAsMjczLjE0OCwwaC01Ni4zMDZjLTE4LjEwNCwwLTMyLjgzOCwxNC43MzMtMzIuODM4LDMyLjgzOFY2MC42OCYjeEE7JiM5OyYjOTtDOTIuODQyLDg3LjE1OCwyNi4wMTQsMTcxLjQyMiwyNi4wMTQsMjcxLjAwOUMyNi4wMTQsMzkxLjc2NCwxMjQuMjQ5LDQ5MCwyNDQuOTk0LDQ5MGMxMjAuNzU1LDAsMjE4Ljk5MS05OC4yMzYsMjE4Ljk5MS0yMTguOTkxJiN4QTsmIzk7JiM5O0M0NjMuOTg2LDIyMC4xODYsNDQ2LjU3OSwxNzMuMzU1LDQxNy40MTgsMTM2LjE1NXogTTQ0My4zMSwyODEuMjE3Yy0yLjM5Niw0Ny4wNzMtMjEuMjY3LDg5Ljg2OC01MC45NCwxMjIuNzMxbC0xNi44MzktMTYuODM5JiN4QTsmIzk7JiM5O2wtMTQuNDM2LDE0LjQzNWwxNi44MzksMTYuODRjLTMyLjg2MywyOS42NzQtNzUuNjU5LDQ4LjU0NS0xMjIuNzMxLDUwLjk0di0yMy45MTZoLTIwLjQxN3YyMy45MTYmI3hBOyYjOTsmIzk7Yy00Ny4wNzEtMi4zOTUtODkuODYzLTIxLjI2Ni0xMjIuNzIzLTUwLjkzOGwxNi44NDItMTYuODQybC0xNC40MzUtMTQuNDM1bC0xNi44NDIsMTYuODQyJiN4QTsmIzk7JiM5O2MtMjkuNjcyLTMyLjg2NC00OC41NDItNzUuNjYtNTAuOTM4LTEyMi43MzRoMjMuOTE1di0yMC40MTZINDYuNjljMi4zOTUtNDcuMDczLDIxLjI2NS04OS44NjcsNTAuOTM2LTEyMi43MjhsMTYuODQzLDE2LjgzNiYjeEE7JiM5OyYjOTtsMTQuNDM1LTE0LjQzNmwtMTYuODQ0LTE2LjgzNWMzMi44NjEtMjkuNjcsNzUuNjUzLTQ4LjUzOSwxMjIuNzI1LTUwLjkzNVY5Ni42MmgyMC40MTdWNzIuNzA0JiN4QTsmIzk7JiM5O2M0Ny4wNzMsMi4zOTYsODkuODY5LDIxLjI2NSwxMjIuNzMyLDUwLjkzN2wtMTYuODQxLDE2LjgzM2wxNC40MzYsMTQuNDM2bDE2Ljg0MS0xNi44MzQmI3hBOyYjOTsmIzk7YzI5LjY3MywzMi44NjEsNDguNTQzLDc1LjY1Myw1MC45MzksMTIyLjcyNmgtMjMuOTE2djIwLjQxNkg0NDMuMzF6IE00MTUuNDA2LDgwLjg4OWwxNC4xNjYsMTQuMTA2bC0yNS41MjMsMjUuNjUzJiN4QTsmIzk7JiM5O2MtNC41OC00Ljg0Mi05LjM4Mi05LjQ3MS0xNC4zODMtMTMuODgxTDQxNS40MDYsODAuODg5eiBNMjA0LjQyMSwzMi44MzhjMC02Ljg0OSw1LjU3My0xMi40MjEsMTIuNDIxLTEyLjQyMWg1Ni4zMDYmI3hBOyYjOTsmIzk7YzYuODU4LDAsMTIuNDMxLDUuNTczLDEyLjQzMSwxMi40MjF2MjIuOTc1Yy0xMy4xNTctMi40NzUtMjYuNzE5LTMuNzg1LTQwLjU4NC0zLjc4NWMtMTMuODYxLDAtMjcuNDIxLDEuMzEtNDAuNTc0LDMuNzg0VjMyLjgzOHoiLz4mI3hhOwk8cGF0aCBkPSJNMzMwLjk5OCwxMDguNDQzbDE3LjQ4NiwxMC41MjdsLTk0Ljc0NSwxNTcuMzAybC0xNy40ODYtMTAuNTI3TDMzMC45OTgsMTA4LjQ0M3oiLz4mI3hhOzwvZz4mI3hhOzxnPiYjeGE7PC9nPiYjeGE7PGc+JiN4YTs8L2c+JiN4YTs8Zz4mI3hhOzwvZz4mI3hhOzxnPiYjeGE7PC9nPiYjeGE7PGc+JiN4YTs8L2c+JiN4YTs8Zz4mI3hhOzwvZz4mI3hhOzxnPiYjeGE7PC9nPiYjeGE7PGc+JiN4YTs8L2c+JiN4YTs8Zz4mI3hhOzwvZz4mI3hhOzxnPiYjeGE7PC9nPiYjeGE7PGc+JiN4YTs8L2c+JiN4YTs8Zz4mI3hhOzwvZz4mI3hhOzxnPiYjeGE7PC9nPiYjeGE7PGc+JiN4YTs8L2c+JiN4YTs8Zz4mI3hhOzwvZz4mI3hhOzwvc3ZnPg==;" parent="1" vertex="1">
          <mxGeometry x="393" y="120" width="25" height="25" as="geometry" />
        </mxCell>
        <mxCell id="DYeIu-XaYAEz3ui3MFc--2" value="" style="rounded=0;whiteSpace=wrap;html=1;fillColor=#FFE6CC;strokeColor=#000000;strokeWidth=2;rotation=0;" parent="1" vertex="1">
          <mxGeometry x="150" y="114" width="30" height="6.85" as="geometry" />
        </mxCell>
        <mxCell id="DYeIu-XaYAEz3ui3MFc--25" value="" style="group" parent="1" vertex="1" connectable="0">
          <mxGeometry x="164.5" y="126.85" width="93" height="53" as="geometry" />
        </mxCell>
        <mxCell id="DYeIu-XaYAEz3ui3MFc--26" value="example.com" style="swimlane;fontStyle=1;childLayout=stackLayout;horizontal=1;startSize=20;horizontalStack=0;resizeParent=1;resizeParentMax=0;resizeLast=0;collapsible=1;marginBottom=0;strokeWidth=1;fillColor=#eeeeee;strokeColor=#36393d;align=center;" parent="DYeIu-XaYAEz3ui3MFc--25" vertex="1">
          <mxGeometry x="1" y="14" width="91" height="38" as="geometry" />
        </mxCell>
        <mxCell id="DYeIu-XaYAEz3ui3MFc--27" value="SWId: 1" style="text;strokeColor=none;fillColor=none;align=center;verticalAlign=middle;spacingLeft=4;spacingRight=4;overflow=hidden;points=[[0,0.5],[1,0.5]];portConstraint=eastwest;rotatable=0;strokeWidth=1;" parent="DYeIu-XaYAEz3ui3MFc--26" vertex="1">
          <mxGeometry y="20" width="91" height="18" as="geometry" />
        </mxCell>
        <mxCell id="DYeIu-XaYAEz3ui3MFc--28" value="ReplaySW" style="swimlane;fillColor=#dae8fc;strokeColor=#6c8ebf;startSize=13;" parent="DYeIu-XaYAEz3ui3MFc--25" vertex="1">
          <mxGeometry width="93" height="53" as="geometry" />
        </mxCell>
        <mxCell id="DYeIu-XaYAEz3ui3MFc--1" style="edgeStyle=orthogonalEdgeStyle;rounded=0;sketch=0;orthogonalLoop=1;jettySize=auto;html=1;exitX=1;exitY=0.5;exitDx=0;exitDy=0;entryX=0.5;entryY=0;entryDx=0;entryDy=0;shadow=0;dashed=1;endArrow=none;endFill=0;" parent="1" source="DYeIu-XaYAEz3ui3MFc--2" target="DYeIu-XaYAEz3ui3MFc--28" edge="1">
          <mxGeometry relative="1" as="geometry">
            <mxPoint x="211" y="139.85" as="targetPoint" />
          </mxGeometry>
        </mxCell>
        <mxCell id="DYeIu-XaYAEz3ui3MFc--38" value="&lt;font style=&quot;font-size: 6px&quot;&gt;Notification&lt;/font&gt;" style="whiteSpace=wrap;html=1;shape=mxgraph.basic.oval_callout;fontSize=9;" parent="1" vertex="1">
          <mxGeometry x="390" y="158.72" width="46" height="22.57" as="geometry" />
        </mxCell>
        <mxCell id="DYeIu-XaYAEz3ui3MFc--24" value="" style="rounded=0;whiteSpace=wrap;html=1;fillColor=#FFE6CC;strokeColor=#000000;strokeWidth=2;rotation=0;" parent="1" vertex="1">
          <mxGeometry x="272" y="166.58" width="30" height="6.85" as="geometry" />
        </mxCell>
        <mxCell id="EqJl53j0fZwEslWqSYaT-2" style="edgeStyle=orthogonalEdgeStyle;rounded=0;orthogonalLoop=1;jettySize=auto;html=1;exitX=1;exitY=0.5;exitDx=0;exitDy=0;entryX=0;entryY=0.5;entryDx=0;entryDy=0;fontSize=9;endArrow=none;endFill=0;dashed=1;" parent="1" source="DYeIu-XaYAEz3ui3MFc--28" target="DYeIu-XaYAEz3ui3MFc--24" edge="1">
          <mxGeometry relative="1" as="geometry">
            <Array as="points">
              <mxPoint x="267" y="153" />
              <mxPoint x="267" y="170" />
            </Array>
          </mxGeometry>
        </mxCell>
        <mxCell id="EqJl53j0fZwEslWqSYaT-15" value="SW Operation" style="swimlane;fontStyle=1;childLayout=stackLayout;horizontal=1;startSize=14;horizontalStack=0;resizeParent=1;resizeParentMax=0;resizeLast=0;collapsible=1;marginBottom=0;fontFamily=Helvetica;strokeColor=#000000;strokeWidth=2;fillColor=#FFE6CC;gradientColor=none;fontSize=9;" parent="1" vertex="1">
          <mxGeometry x="27" y="131" width="100" height="40" as="geometry" />
        </mxCell>
        <mxCell id="EqJl53j0fZwEslWqSYaT-17" value="Type: Push&#xa;attrs: { &#39;body&#39; : &#39;msg&#39; }&#xa;" style="text;strokeColor=none;fillColor=none;align=left;verticalAlign=middle;spacingLeft=4;spacingRight=4;overflow=hidden;points=[[0,0.5],[1,0.5]];portConstraint=eastwest;rotatable=0;fontFamily=Helvetica;fontSize=9;" parent="EqJl53j0fZwEslWqSYaT-15" vertex="1">
          <mxGeometry y="14" width="100" height="26" as="geometry" />
        </mxCell>
        <mxCell id="EqJl53j0fZwEslWqSYaT-20" value="" style="endArrow=none;dashed=1;html=1;rounded=0;fontSize=9;" parent="1" edge="1">
          <mxGeometry width="50" height="50" relative="1" as="geometry">
            <mxPoint x="134" y="183" as="sourcePoint" />
            <mxPoint x="133" y="107" as="targetPoint" />
          </mxGeometry>
        </mxCell>
      </root>
    </mxGraphModel>
  </diagram>
</mxfile>
